SplineFontDB: 3.0
FontName: Untitled1
FullName: Untitled1
FamilyName: Untitled1
Weight: Regular
Copyright: Copyright (c) 2022, Martin
UComments: "2022-10-10: Created with FontForge (http://fontforge.org)"
Version: 001.000
ItalicAngle: 0
UnderlinePosition: -99.6094
UnderlineWidth: 49.8047
Ascent: 800
Descent: 200
InvalidEm: 0
LayerCount: 2
Layer: 0 0 "Back" 1
Layer: 1 0 "Fore" 0
XUID: [1021 718 1592000460 4164002]
StyleMap: 0x0000
FSType: 0
OS2Version: 0
OS2_WeightWidthSlopeOnly: 0
OS2_UseTypoMetrics: 1
CreationTime: 1665411887
ModificationTime: 1665503397
OS2TypoAscent: 0
OS2TypoAOffset: 1
OS2TypoDescent: 0
OS2TypoDOffset: 1
OS2TypoLinegap: 90
OS2WinAscent: 0
OS2WinAOffset: 1
OS2WinDescent: 0
OS2WinDOffset: 1
HheadAscent: 0
HheadAOffset: 1
HheadDescent: 0
HheadDOffset: 1
MarkAttachClasses: 1
DEI: 91125
Encoding: ISO8859-1
UnicodeInterp: none
NameList: AGL For New Fonts
DisplaySize: -48
AntiAlias: 1
FitToEm: 0
WinInfo: 0 32 13
BeginPrivate: 0
EndPrivate
BeginChars: 256 101

StartChar: exclam
Encoding: 33 33 0
Width: 274
Flags: HW
LayerCount: 2
Fore
SplineSet
125 190 m 1
 120 670 l 1
 120 740 l 1
 155 740 l 1
 155 670 l 1
 150 190 l 1
 125 190 l 1
135 -15 m 0
 125 -15 120 -10 110 0 c 128
 100 10 95 15 95 30 c 0
 95 45 100 55 110 65 c 128
 120 75 125 75 135 75 c 0
 145 75 155 75 165 65 c 128
 175 55 180 45 180 30 c 0
 180 15 175 10 165 0 c 128
 155 -10 145 -15 135 -15 c 0
EndSplineSet
Validated: 1
EndChar

StartChar: quotedbl
Encoding: 34 34 1
Width: 369
Flags: HW
LayerCount: 2
Fore
SplineSet
100 540 m 1
 90 695 l 1
 90 765 l 1
 135 765 l 1
 135 695 l 1
 130 540 l 1
 100 540 l 1
245 540 m 1
 235 695 l 1
 235 765 l 1
 280 765 l 1
 280 695 l 1
 270 540 l 1
 245 540 l 1
EndSplineSet
Validated: 1
EndChar

StartChar: numbersign
Encoding: 35 35 2
Width: 519
Flags: HW
LayerCount: 2
Fore
SplineSet
105 0 m 1
 130 240 l 1
 40 240 l 1
 40 270 l 1
 135 270 l 1
 160 465 l 1
 60 465 l 1
 60 500 l 1
 165 500 l 1
 190 715 l 1
 225 715 l 1
 195 500 l 1
 365 500 l 1
 395 715 l 1
 425 715 l 1
 400 500 l 1
 490 500 l 1
 490 465 l 1
 395 465 l 1
 370 270 l 1
 465 270 l 1
 465 240 l 1
 365 240 l 1
 340 0 l 1
 305 0 l 1
 335 240 l 1
 165 240 l 1
 135 0 l 1
 105 0 l 1
170 270 m 1
 340 270 l 1
 365 465 l 1
 190 465 l 1
 170 270 l 1
EndSplineSet
Validated: 1
EndChar

StartChar: dollar
Encoding: 36 36 3
Width: 519
Flags: HW
LayerCount: 2
Fore
SplineSet
270 -15 m 0
 240 -15 215 -10 190 0 c 128
 165 10 140 15 120 30 c 128
 100 45 85 60 70 75 c 1
 90 100 l 1
 110 80 135 60 165 45 c 128
 195 30 230 20 270 20 c 0
 320 20 355 35 380 60 c 128
 405 85 415 120 415 160 c 0
 415 195 410 225 400 245 c 128
 390 265 375 285 355 300 c 128
 335 315 315 330 290 340 c 128
 265 350 250 365 225 375 c 128
 200 385 180 400 160 415 c 128
 140 430 125 450 115 470 c 128
 105 490 95 520 95 550 c 0
 95 585 105 610 120 635 c 128
 135 660 155 680 180 695 c 128
 205 710 240 715 270 715 c 0
 310 715 345 710 370 695 c 128
 395 680 415 660 435 640 c 1
 410 615 l 1
 390 635 370 655 350 665 c 128
 330 675 300 685 265 685 c 0
 225 685 195 670 170 645 c 128
 145 620 135 585 135 550 c 0
 135 520 140 500 150 480 c 128
 160 460 180 445 200 430 c 128
 220 415 235 405 260 395 c 128
 285 385 305 370 330 360 c 128
 355 350 370 335 390 320 c 128
 410 305 425 280 435 255 c 128
 445 230 455 200 455 165 c 256
 455 130 445 95 430 70 c 128
 415 45 390 25 360 10 c 128
 330 -5 305 -15 270 -15 c 0
250 -120 m 1
 250 -10 l 1
 285 -10 l 1
 285 -120 l 1
 250 -120 l 1
250 695 m 1
 250 825 l 1
 285 825 l 1
 285 695 l 1
 250 695 l 1
EndSplineSet
Validated: 5
EndChar

StartChar: percent
Encoding: 37 37 4
Width: 879
Flags: HW
LayerCount: 2
Fore
SplineSet
200 285 m 0
 170 285 140 290 115 310 c 128
 90 330 75 355 65 390 c 128
 55 425 45 465 45 515 c 0
 45 565 55 600 65 635 c 128
 75 670 90 690 115 710 c 128
 140 730 170 740 200 740 c 0
 230 740 255 730 280 710 c 128
 305 690 325 670 335 635 c 128
 345 600 350 565 350 515 c 0
 350 465 345 425 335 390 c 128
 325 355 305 330 280 310 c 128
 255 290 230 285 200 285 c 0
200 315 m 0
 235 315 265 330 285 365 c 128
 305 400 315 450 315 515 c 256
 315 580 305 625 285 660 c 128
 265 695 235 710 200 710 c 0
 165 710 130 695 110 660 c 128
 90 625 80 580 80 515 c 256
 80 450 90 400 110 365 c 128
 130 330 165 315 200 315 c 0
215 -15 m 1
 625 740 l 1
 660 740 l 1
 255 -15 l 1
 215 -15 l 1
680 -15 m 0
 650 -15 625 -5 600 15 c 128
 575 35 560 55 550 90 c 128
 540 125 530 165 530 215 c 0
 530 265 540 305 550 340 c 128
 560 375 575 395 600 415 c 128
 625 435 650 440 680 440 c 0
 710 440 740 435 765 415 c 128
 790 395 805 375 815 340 c 128
 825 305 835 265 835 215 c 0
 835 165 825 125 815 90 c 128
 805 55 790 35 765 15 c 128
 740 -5 710 -15 680 -15 c 0
680 15 m 0
 715 15 750 35 770 70 c 128
 790 105 800 150 800 215 c 256
 800 280 790 325 770 360 c 128
 750 395 715 415 680 415 c 0
 645 415 615 395 595 360 c 128
 575 325 565 280 565 215 c 256
 565 150 575 105 595 70 c 128
 615 35 645 15 680 15 c 0
EndSplineSet
Validated: 1
EndChar

StartChar: ampersand
Encoding: 38 38 5
Width: 619
Flags: HW
LayerCount: 2
Fore
SplineSet
245 -15 m 0
 210 -15 175 -5 145 10 c 128
 115 25 90 50 70 80 c 128
 50 110 40 145 40 185 c 0
 40 220 50 245 65 270 c 128
 80 295 100 325 125 345 c 128
 150 365 175 390 205 410 c 128
 235 430 260 450 285 470 c 128
 310 490 330 510 345 535 c 128
 360 560 365 580 365 610 c 0
 365 625 365 640 360 655 c 128
 355 670 345 680 335 690 c 128
 325 700 305 705 285 705 c 0
 250 705 225 695 205 670 c 128
 185 645 175 620 175 585 c 0
 175 545 185 500 200 460 c 128
 215 420 240 375 265 335 c 128
 290 295 320 250 355 215 c 128
 390 180 420 150 455 120 c 0
 480 95 510 75 535 60 c 128
 560 45 580 30 605 20 c 1
 595 -15 l 1
 570 -5 545 10 520 25 c 128
 495 40 460 65 430 90 c 0
 395 120 365 155 330 195 c 128
 295 235 265 275 235 320 c 128
 205 365 185 410 170 455 c 128
 155 500 145 540 145 580 c 0
 145 610 150 635 160 660 c 128
 170 685 190 705 210 720 c 128
 230 735 255 740 285 740 c 0
 320 740 350 725 370 700 c 128
 390 675 400 645 400 610 c 0
 400 580 395 555 380 530 c 128
 365 505 345 480 320 460 c 128
 295 440 270 420 240 400 c 128
 210 380 185 355 160 335 c 128
 135 315 115 290 100 265 c 128
 85 240 80 215 80 185 c 0
 80 150 85 125 100 100 c 128
 115 75 140 55 165 40 c 128
 190 25 220 20 250 20 c 0
 285 20 315 25 345 45 c 128
 375 65 400 90 425 115 c 0
 455 150 485 190 505 235 c 128
 525 280 545 325 560 375 c 1
 595 375 l 1
 580 320 560 275 535 225 c 128
 510 175 485 130 455 90 c 0
 430 60 395 35 360 15 c 128
 325 -5 290 -15 245 -15 c 0
EndSplineSet
Validated: 5
EndChar

StartChar: quotesingle
Encoding: 39 39 6
Width: 229
Flags: HW
LayerCount: 2
Fore
SplineSet
100 540 m 1
 90 695 l 1
 90 765 l 1
 135 765 l 1
 135 695 l 1
 130 540 l 1
 100 540 l 1
EndSplineSet
Validated: 1
EndChar

StartChar: parenleft
Encoding: 40 40 7
Width: 294
Flags: HW
LayerCount: 2
Fore
SplineSet
245 -190 m 1
 200 -115 165 -40 140 40 c 128
 115 120 100 210 100 305 c 256
 100 400 115 495 140 575 c 128
 165 655 200 730 245 805 c 1
 265 790 l 1
 220 720 185 645 165 560 c 128
 145 475 130 395 130 305 c 256
 130 215 145 135 165 50 c 128
 185 -35 220 -110 265 -180 c 1
 245 -190 l 1
EndSplineSet
Validated: 1
EndChar

StartChar: parenright
Encoding: 41 41 8
Width: 294
Flags: HW
LayerCount: 2
Fore
SplineSet
55 -190 m 1
 35 -180 l 1
 80 -110 110 -35 135 50 c 128
 160 135 165 215 165 305 c 256
 165 395 160 475 135 560 c 128
 110 645 80 720 35 790 c 1
 55 805 l 1
 100 730 135 655 160 575 c 128
 185 495 200 400 200 305 c 256
 200 210 185 120 160 40 c 128
 135 -40 100 -115 55 -190 c 1
EndSplineSet
Validated: 1
EndChar

StartChar: asterisk
Encoding: 42 42 9
Width: 424
Flags: HW
LayerCount: 2
Fore
SplineSet
145 525 m 1
 120 540 l 1
 180 635 l 1
 80 675 l 1
 90 700 l 1
 190 675 l 1
 200 785 l 1
 230 785 l 1
 235 675 l 1
 335 700 l 1
 345 675 l 1
 250 635 l 1
 310 540 l 1
 285 525 l 1
 215 615 l 1
 145 525 l 1
EndSplineSet
Validated: 1
EndChar

StartChar: plus
Encoding: 43 43 10
Width: 519
Flags: HW
LayerCount: 2
Fore
SplineSet
240 125 m 1
 240 345 l 1
 35 345 l 1
 35 380 l 1
 240 380 l 1
 240 605 l 1
 280 605 l 1
 280 380 l 1
 485 380 l 1
 485 345 l 1
 280 345 l 1
 280 125 l 1
 240 125 l 1
EndSplineSet
Validated: 1
EndChar

StartChar: comma
Encoding: 44 44 11
Width: 229
Flags: HW
LayerCount: 2
Fore
SplineSet
65 -165 m 1
 55 -140 l 1
 80 -125 95 -110 110 -85 c 128
 125 -60 135 -30 135 0 c 1
 120 60 l 1
 155 10 l 1
 150 5 145 -5 140 -5 c 128
 135 -5 125 -5 120 -5 c 0
 110 -5 100 0 90 5 c 128
 80 10 80 20 80 35 c 0
 80 50 80 60 90 65 c 128
 100 70 110 75 120 75 c 0
 135 75 145 70 155 55 c 128
 165 40 170 25 170 5 c 0
 170 -30 160 -65 140 -95 c 128
 120 -125 95 -150 65 -165 c 1
EndSplineSet
Validated: 5
EndChar

StartChar: hyphen
Encoding: 45 45 12
Width: 319
Flags: HW
LayerCount: 2
Fore
SplineSet
45 255 m 1
 45 290 l 1
 285 290 l 1
 285 255 l 1
 45 255 l 1
EndSplineSet
Validated: 1
EndChar

StartChar: period
Encoding: 46 46 13
Width: 229
Flags: HW
LayerCount: 2
Fore
SplineSet
115 -15 m 0
 105 -15 100 -10 90 0 c 128
 80 10 75 15 75 30 c 0
 75 45 80 55 90 65 c 128
 100 75 105 75 115 75 c 0
 125 75 135 75 145 65 c 128
 155 55 155 45 155 30 c 0
 155 15 155 10 145 0 c 128
 135 -10 125 -15 115 -15 c 0
EndSplineSet
Validated: 1
EndChar

StartChar: slash
Encoding: 47 47 14
Width: 394
Flags: HW
LayerCount: 2
Fore
SplineSet
10 -175 m 1
 360 780 l 1
 395 780 l 1
 45 -175 l 1
 10 -175 l 1
EndSplineSet
Validated: 1
EndChar

StartChar: zero
Encoding: 48 48 15
Width: 519
Flags: HW
LayerCount: 2
Fore
SplineSet
260 -15 m 256
 215 -15 180 5 150 30 c 128
 120 55 95 100 80 155 c 128
 65 210 55 280 55 365 c 0
 55 450 65 520 80 575 c 128
 95 630 120 675 150 700 c 128
 180 725 215 740 260 740 c 256
 305 740 340 725 370 700 c 128
 400 675 425 630 440 575 c 128
 455 520 465 450 465 365 c 0
 465 280 455 210 440 155 c 128
 425 100 400 55 370 30 c 128
 340 5 305 -15 260 -15 c 256
260 20 m 256
 295 20 325 35 350 60 c 128
 375 85 395 125 410 175 c 128
 425 225 430 290 430 365 c 0
 430 440 425 500 410 550 c 128
 395 600 375 645 350 670 c 128
 325 695 295 705 260 705 c 256
 225 705 195 695 170 670 c 128
 145 645 130 600 115 550 c 128
 100 500 90 440 90 365 c 0
 90 290 100 225 115 175 c 128
 130 125 145 85 170 60 c 128
 195 35 225 20 260 20 c 256
EndSplineSet
Validated: 1
EndChar

StartChar: one
Encoding: 49 49 16
Width: 519
Flags: HW
LayerCount: 2
Fore
SplineSet
95 0 m 1
 95 35 l 1
 260 35 l 1
 260 660 l 1
 135 660 l 1
 135 685 l 1
 165 690 190 695 210 700 c 128
 230 705 250 715 265 725 c 1
 295 725 l 1
 295 35 l 1
 455 35 l 1
 455 0 l 1
 95 0 l 1
EndSplineSet
Validated: 1
EndChar

StartChar: two
Encoding: 50 50 17
Width: 519
Flags: HW
LayerCount: 2
Fore
SplineSet
45 0 m 1
 45 25 l 1
 130 100 200 165 250 225 c 128
 300 285 340 340 365 390 c 128
 390 440 395 490 395 535 c 0
 395 565 390 595 380 620 c 128
 370 645 355 670 330 685 c 128
 305 700 275 705 240 705 c 0
 205 705 175 695 145 680 c 128
 115 665 90 640 70 615 c 1
 45 635 l 1
 70 665 100 690 130 710 c 128
 160 730 195 740 240 740 c 0
 280 740 315 730 345 715 c 128
 375 700 395 670 410 640 c 128
 425 610 435 575 435 535 c 0
 435 480 420 430 395 375 c 128
 370 320 335 265 285 210 c 128
 235 155 175 95 105 30 c 1
 125 30 145 30 165 30 c 128
 185 30 205 35 225 35 c 2
 470 35 l 1
 470 0 l 1
 45 0 l 1
EndSplineSet
Validated: 1
EndChar

StartChar: three
Encoding: 51 51 18
Width: 519
Flags: HW
LayerCount: 2
Fore
SplineSet
255 -15 m 0
 220 -15 180 -10 155 0 c 128
 130 10 105 25 85 40 c 128
 65 55 50 70 35 85 c 1
 55 110 l 1
 75 85 105 70 135 50 c 128
 165 30 205 20 255 20 c 0
 290 20 320 25 345 40 c 128
 370 55 390 75 405 100 c 128
 420 125 425 155 425 190 c 0
 425 225 415 255 400 280 c 128
 385 305 355 325 320 340 c 128
 285 355 235 365 175 365 c 1
 175 400 l 1
 230 400 270 405 305 420 c 128
 340 435 365 455 380 480 c 128
 395 505 400 535 400 565 c 0
 400 605 385 645 360 670 c 128
 335 695 295 705 250 705 c 0
 215 705 190 700 160 685 c 128
 130 670 105 650 85 630 c 1
 65 655 l 1
 90 680 115 700 145 715 c 128
 175 730 210 740 250 740 c 0
 285 740 315 735 345 720 c 128
 375 705 400 685 415 660 c 128
 430 635 440 605 440 570 c 0
 440 520 425 480 400 450 c 128
 375 420 340 400 300 385 c 1
 300 380 l 1
 330 375 355 360 380 345 c 128
 405 330 425 305 440 280 c 128
 455 255 465 225 465 190 c 0
 465 150 455 115 435 85 c 128
 415 55 390 25 360 10 c 128
 330 -5 295 -15 255 -15 c 0
EndSplineSet
Validated: 1
EndChar

StartChar: four
Encoding: 52 52 19
Width: 519
Flags: HW
LayerCount: 2
Fore
SplineSet
345 0 m 1
 345 545 l 2
 345 560 345 580 345 600 c 128
 345 620 350 640 350 655 c 1
 345 655 l 1
 335 640 325 625 315 610 c 128
 305 595 295 575 285 560 c 2
 65 245 l 1
 485 245 l 1
 485 215 l 1
 20 215 l 1
 20 230 l 1
 355 725 l 1
 380 725 l 1
 380 0 l 1
 345 0 l 1
EndSplineSet
Validated: 5
EndChar

StartChar: five
Encoding: 53 53 20
Width: 519
Flags: HW
LayerCount: 2
Fore
SplineSet
245 -15 m 0
 210 -15 175 -10 150 0 c 128
 125 10 100 25 80 40 c 128
 60 55 45 65 30 80 c 1
 50 110 l 1
 65 95 80 80 100 65 c 128
 120 50 135 45 160 35 c 128
 185 25 215 20 250 20 c 0
 280 20 310 30 340 45 c 128
 370 60 390 90 405 120 c 128
 420 150 430 190 430 230 c 0
 430 290 410 340 380 375 c 128
 350 410 305 430 250 430 c 0
 225 430 200 425 180 415 c 128
 160 405 140 395 120 380 c 1
 90 400 l 1
 115 725 l 1
 430 725 l 1
 430 695 l 1
 145 695 l 1
 125 425 l 1
 145 435 160 450 180 455 c 128
 200 460 230 465 255 465 c 0
 295 465 330 455 360 440 c 128
 390 425 420 400 440 365 c 128
 460 330 470 285 470 230 c 0
 470 180 455 135 435 100 c 128
 415 65 385 35 350 15 c 128
 315 -5 280 -15 245 -15 c 0
EndSplineSet
Validated: 1
EndChar

StartChar: six
Encoding: 54 54 21
Width: 519
Flags: HW
LayerCount: 2
Fore
SplineSet
285 -15 m 0
 250 -15 220 -5 190 10 c 128
 160 25 140 50 120 80 c 128
 100 110 90 145 80 190 c 128
 70 235 60 285 60 340 c 0
 60 415 65 480 80 530 c 128
 95 580 115 620 140 650 c 128
 165 680 190 705 220 720 c 128
 250 735 280 740 315 740 c 0
 345 740 375 730 400 720 c 128
 425 710 440 695 460 675 c 1
 435 650 l 1
 420 670 400 680 380 690 c 128
 360 700 340 705 315 705 c 0
 275 705 245 695 210 670 c 128
 175 645 150 610 130 555 c 128
 110 500 100 430 100 340 c 0
 100 280 105 225 120 175 c 128
 135 125 150 90 180 60 c 128
 210 30 245 20 290 20 c 0
 320 20 345 25 365 45 c 128
 385 65 405 90 420 120 c 128
 435 150 435 180 435 215 c 0
 435 250 430 285 420 315 c 128
 410 345 395 370 370 385 c 128
 345 400 320 415 280 415 c 0
 255 415 225 405 190 385 c 128
 155 365 125 340 95 295 c 1
 95 340 l 1
 110 360 130 380 150 395 c 128
 170 410 190 420 210 430 c 128
 230 440 255 445 280 445 c 0
 320 445 355 435 385 420 c 128
 415 405 435 375 450 340 c 128
 465 305 475 265 475 215 c 0
 475 170 465 135 450 100 c 128
 435 65 410 35 380 15 c 128
 350 -5 320 -15 285 -15 c 0
EndSplineSet
Validated: 5
EndChar

StartChar: seven
Encoding: 55 55 22
Width: 519
Flags: HW
LayerCount: 2
Fore
SplineSet
210 0 m 1
 215 75 220 140 230 205 c 128
 240 270 255 325 270 380 c 128
 285 435 305 490 330 540 c 128
 355 590 390 645 425 695 c 1
 50 695 l 1
 50 725 l 1
 475 725 l 1
 475 705 l 1
 430 645 400 590 370 535 c 128
 340 480 315 425 300 370 c 128
 285 315 275 260 265 200 c 128
 255 140 255 70 250 0 c 1
 210 0 l 1
EndSplineSet
Validated: 1
EndChar

StartChar: eight
Encoding: 56 56 23
Width: 519
Flags: HW
LayerCount: 2
Fore
SplineSet
265 -15 m 0
 220 -15 185 -5 150 10 c 128
 115 25 90 50 70 80 c 128
 50 110 45 145 45 180 c 0
 45 215 50 240 65 270 c 128
 80 300 100 325 120 345 c 128
 140 365 165 380 185 390 c 1
 185 395 l 1
 160 410 140 435 120 460 c 128
 100 485 85 520 85 560 c 0
 85 595 95 625 110 650 c 128
 125 675 150 695 175 710 c 128
 200 725 230 735 265 735 c 0
 305 735 335 725 365 710 c 128
 395 695 415 670 430 640 c 128
 445 610 450 580 450 545 c 0
 450 520 445 495 435 470 c 128
 425 445 410 425 395 405 c 128
 380 385 365 370 350 360 c 1
 350 355 l 1
 370 345 390 330 410 315 c 128
 430 300 445 280 455 255 c 128
 465 230 475 205 475 170 c 256
 475 135 470 110 450 80 c 128
 430 50 405 25 375 10 c 128
 345 -5 305 -15 265 -15 c 0
320 375 m 1
 350 400 375 425 390 455 c 128
 405 485 415 510 415 545 c 0
 415 575 410 600 400 625 c 128
 390 650 370 665 345 680 c 128
 320 695 295 705 265 705 c 0
 225 705 185 685 160 660 c 128
 135 635 125 600 125 560 c 0
 125 525 130 495 150 470 c 128
 170 445 195 430 225 415 c 128
 255 400 290 390 320 375 c 1
265 20 m 256
 300 20 330 25 355 40 c 128
 380 55 400 70 415 95 c 128
 430 120 435 145 435 170 c 0
 435 200 435 225 420 245 c 128
 405 265 390 285 370 300 c 128
 350 315 320 330 295 340 c 128
 270 350 245 365 215 375 c 1
 175 355 145 330 120 295 c 128
 95 260 80 225 80 180 c 0
 80 150 90 125 105 100 c 128
 120 75 140 55 170 40 c 128
 200 25 230 20 265 20 c 256
EndSplineSet
Validated: 1
EndChar

StartChar: nine
Encoding: 57 57 24
Width: 519
Flags: HW
LayerCount: 2
Fore
SplineSet
215 -15 m 0
 180 -15 155 -5 130 5 c 128
 105 15 85 35 65 55 c 1
 85 80 l 1
 100 60 125 45 145 35 c 128
 165 25 190 20 215 20 c 0
 240 20 270 25 295 40 c 128
 320 55 340 75 360 105 c 128
 380 135 400 175 410 225 c 128
 420 275 425 335 425 410 c 0
 425 465 420 515 405 560 c 128
 390 605 375 645 345 670 c 128
 315 695 280 705 235 705 c 0
 205 705 180 700 160 680 c 128
 140 660 120 640 105 610 c 128
 90 580 85 545 85 510 c 256
 85 475 90 440 100 410 c 128
 110 380 130 360 155 340 c 128
 180 320 210 315 245 315 c 0
 275 315 305 320 335 340 c 128
 365 360 400 390 430 430 c 1
 430 385 l 1
 415 365 395 345 375 330 c 128
 355 315 330 305 310 295 c 128
 290 285 265 280 240 280 c 0
 200 280 165 290 135 310 c 128
 105 330 85 350 70 385 c 128
 55 420 50 460 50 510 c 0
 50 555 60 595 75 630 c 128
 90 665 110 690 140 710 c 128
 170 730 200 740 235 740 c 0
 270 740 300 730 330 715 c 128
 360 700 380 680 400 650 c 128
 420 620 435 590 445 550 c 128
 455 510 460 465 460 410 c 0
 460 330 455 265 440 210 c 128
 425 155 410 115 385 80 c 128
 360 45 335 25 305 10 c 128
 275 -5 245 -15 215 -15 c 0
EndSplineSet
Validated: 5
EndChar

StartChar: colon
Encoding: 58 58 25
Width: 229
Flags: HW
LayerCount: 2
Fore
SplineSet
115 415 m 0
 105 415 100 420 90 425 c 128
 80 430 75 445 75 460 c 0
 75 475 80 480 90 490 c 128
 100 500 105 505 115 505 c 0
 125 505 135 500 145 490 c 128
 155 480 155 475 155 460 c 0
 155 445 155 430 145 425 c 128
 135 420 125 415 115 415 c 0
115 -15 m 0
 105 -15 100 -10 90 0 c 128
 80 10 75 15 75 30 c 0
 75 45 80 55 90 65 c 128
 100 75 105 75 115 75 c 0
 125 75 135 75 145 65 c 128
 155 55 155 45 155 30 c 0
 155 15 155 10 145 0 c 128
 135 -10 125 -15 115 -15 c 0
EndSplineSet
Validated: 1
EndChar

StartChar: semicolon
Encoding: 59 59 26
Width: 229
Flags: HW
LayerCount: 2
Fore
SplineSet
115 415 m 0
 105 415 100 420 90 425 c 128
 80 430 75 445 75 460 c 0
 75 475 80 480 90 490 c 128
 100 500 105 505 115 505 c 0
 125 505 135 500 145 490 c 128
 155 480 155 475 155 460 c 0
 155 445 155 430 145 425 c 128
 135 420 125 415 115 415 c 0
65 -165 m 1
 55 -140 l 1
 80 -125 95 -110 110 -85 c 128
 125 -60 135 -30 135 0 c 1
 120 60 l 1
 155 10 l 1
 150 5 145 -5 140 -5 c 128
 135 -5 125 -5 120 -5 c 0
 110 -5 100 0 90 5 c 128
 80 10 80 20 80 35 c 0
 80 50 80 60 90 65 c 128
 100 70 110 75 120 75 c 0
 135 75 145 70 155 55 c 128
 165 40 170 25 170 5 c 0
 170 -30 160 -65 140 -95 c 128
 120 -125 95 -150 65 -165 c 1
EndSplineSet
Validated: 5
EndChar

StartChar: less
Encoding: 60 60 27
Width: 519
Flags: HW
LayerCount: 2
Fore
SplineSet
485 165 m 1
 35 345 l 1
 35 385 l 1
 485 565 l 1
 485 530 l 1
 220 425 l 1
 75 365 l 1
 75 365 l 1
 220 305 l 1
 485 205 l 1
 485 165 l 1
EndSplineSet
Validated: 5
EndChar

StartChar: equal
Encoding: 61 61 28
Width: 519
Flags: HW
LayerCount: 2
Fore
SplineSet
35 460 m 1
 35 490 l 1
 485 490 l 1
 485 460 l 1
 35 460 l 1
35 235 m 1
 35 270 l 1
 485 270 l 1
 485 235 l 1
 35 235 l 1
EndSplineSet
Validated: 1
EndChar

StartChar: greater
Encoding: 62 62 29
Width: 519
Flags: HW
LayerCount: 2
Fore
SplineSet
35 165 m 1
 35 205 l 1
 300 305 l 1
 445 365 l 1
 445 365 l 1
 300 425 l 1
 35 530 l 1
 35 565 l 1
 485 385 l 1
 485 345 l 1
 35 165 l 1
EndSplineSet
Validated: 5
EndChar

StartChar: question
Encoding: 63 63 30
Width: 434
Flags: HW
LayerCount: 2
Fore
SplineSet
180 190 m 1
 175 225 175 260 185 290 c 128
 195 320 210 345 225 370 c 128
 240 395 260 415 280 435 c 128
 300 455 310 480 320 505 c 128
 330 530 340 555 340 585 c 0
 340 610 335 630 325 650 c 128
 315 670 305 685 285 700 c 128
 265 715 240 720 210 720 c 0
 185 720 155 710 130 700 c 128
 105 690 85 670 65 645 c 1
 40 665 l 1
 60 690 85 710 115 725 c 128
 145 740 175 750 210 750 c 0
 245 750 275 745 300 730 c 128
 325 715 345 695 360 670 c 128
 375 645 380 615 380 585 c 256
 380 555 370 525 360 500 c 128
 350 475 335 455 315 430 c 128
 295 405 275 385 260 360 c 128
 245 335 230 310 220 285 c 128
 210 260 210 225 215 190 c 1
 180 190 l 1
200 -15 m 256
 190 -15 185 -10 175 0 c 128
 165 10 160 15 160 30 c 0
 160 45 165 55 175 65 c 128
 185 75 190 75 200 75 c 256
 210 75 220 75 230 65 c 128
 240 55 240 45 240 30 c 0
 240 15 240 10 230 0 c 128
 220 -10 210 -15 200 -15 c 256
EndSplineSet
Validated: 33
EndChar

StartChar: at
Encoding: 64 64 31
Width: 884
Flags: HW
LayerCount: 2
Fore
SplineSet
420 -155 m 0
 365 -155 320 -145 275 -130 c 128
 230 -115 195 -90 160 -55 c 128
 125 -20 105 15 85 60 c 128
 65 105 55 160 55 220 c 0
 55 290 65 355 90 415 c 128
 115 475 150 525 190 565 c 128
 230 605 275 640 325 660 c 128
 375 680 435 690 490 690 c 0
 560 690 620 680 670 650 c 128
 720 620 755 580 785 530 c 128
 815 480 830 420 830 350 c 0
 830 305 820 260 810 225 c 128
 800 190 780 160 760 135 c 128
 740 110 725 90 700 80 c 128
 675 70 650 65 630 65 c 0
 600 65 580 70 560 85 c 128
 540 100 525 115 525 145 c 1
 525 145 l 1
 505 125 480 110 460 95 c 128
 440 80 415 70 390 70 c 0
 355 70 330 80 305 105 c 128
 280 130 265 170 265 220 c 0
 265 245 270 270 280 300 c 128
 290 330 305 355 320 380 c 128
 335 405 360 425 385 440 c 128
 410 455 435 465 470 465 c 0
 490 465 505 460 520 450 c 128
 535 440 550 425 560 410 c 1
 565 410 l 1
 575 455 l 1
 605 455 l 1
 565 250 l 1
 540 145 565 95 635 95 c 0
 660 95 680 105 705 125 c 128
 730 145 755 175 770 210 c 128
 785 245 795 290 795 345 c 0
 795 395 785 435 770 475 c 128
 755 515 735 550 710 575 c 128
 685 600 650 625 610 640 c 128
 570 655 530 660 485 660 c 0
 435 660 385 650 340 630 c 128
 295 610 245 580 210 540 c 128
 175 500 145 460 125 405 c 128
 105 350 90 290 90 225 c 0
 90 170 100 125 115 80 c 128
 130 35 150 0 180 -30 c 128
 210 -60 245 -85 285 -100 c 128
 325 -115 375 -125 425 -125 c 0
 460 -125 495 -120 525 -110 c 128
 555 -100 585 -85 610 -70 c 1
 625 -100 l 1
 595 -120 565 -130 530 -140 c 128
 495 -150 455 -155 420 -155 c 0
395 100 m 0
 415 100 430 110 450 120 c 128
 470 130 495 155 520 180 c 1
 555 375 l 1
 540 395 530 410 515 420 c 128
 500 430 485 430 465 430 c 0
 440 430 420 425 400 410 c 128
 380 395 360 380 345 360 c 128
 330 340 320 320 310 295 c 128
 300 270 300 245 300 220 c 0
 300 175 310 150 330 130 c 128
 350 110 370 100 395 100 c 0
EndSplineSet
Validated: 33
EndChar

StartChar: A
Encoding: 65 65 32
Width: 569
Flags: HW
LayerCount: 2
Fore
SplineSet
10 0 m 1
 270 725 l 1
 305 725 l 1
 565 0 l 1
 525 0 l 1
 370 435 l 2
 355 480 345 520 330 560 c 128
 315 600 305 645 290 690 c 1
 285 690 l 1
 270 645 260 600 245 560 c 128
 230 520 215 480 200 435 c 2
 50 0 l 1
 10 0 l 1
125 260 m 1
 125 290 l 1
 445 290 l 1
 445 260 l 1
 125 260 l 1
EndSplineSet
Validated: 5
EndChar

StartChar: B
Encoding: 66 66 33
Width: 629
Flags: HW
LayerCount: 2
Fore
SplineSet
110 0 m 1
 110 725 l 1
 300 725 l 2
 350 725 390 720 425 705 c 128
 460 690 485 675 505 650 c 128
 525 625 535 590 535 550 c 0
 535 525 535 500 525 480 c 128
 515 460 500 440 485 425 c 128
 470 410 445 395 420 390 c 1
 420 385 l 1
 470 380 510 360 540 330 c 128
 570 300 580 260 580 210 c 0
 580 165 570 125 550 95 c 128
 530 65 495 40 455 25 c 128
 415 10 370 0 315 0 c 2
 110 0 l 1
145 405 m 1
 280 405 l 2
 360 405 415 415 450 440 c 128
 485 465 500 505 500 550 c 0
 500 605 480 640 445 660 c 128
 410 680 355 695 285 695 c 2
 145 695 l 1
 145 405 l 1
145 35 m 1
 300 35 l 2
 375 35 435 45 480 75 c 128
 525 105 545 150 545 210 c 0
 545 265 525 305 480 330 c 128
 435 355 375 370 300 370 c 2
 145 370 l 1
 145 35 l 1
EndSplineSet
Validated: 1
EndChar

StartChar: C
Encoding: 67 67 34
Width: 614
Flags: HW
LayerCount: 2
Fore
SplineSet
360 -15 m 0
 315 -15 275 -5 240 15 c 128
 205 35 170 55 145 90 c 128
 120 125 100 165 85 210 c 128
 70 255 60 310 60 365 c 256
 60 420 70 475 85 520 c 128
 100 565 120 605 145 640 c 128
 170 675 200 700 240 715 c 128
 280 730 325 740 370 740 c 0
 410 740 450 730 480 710 c 128
 510 690 535 675 555 655 c 1
 530 630 l 1
 510 655 485 670 460 685 c 128
 435 700 405 705 370 705 c 0
 315 705 265 690 225 660 c 128
 185 630 155 595 135 545 c 128
 115 495 100 435 100 365 c 256
 100 295 115 235 135 185 c 128
 155 135 185 95 225 65 c 128
 265 35 310 20 365 20 c 0
 405 20 435 30 465 45 c 128
 495 60 525 85 550 115 c 1
 575 90 l 1
 550 60 520 35 485 15 c 128
 450 -5 405 -15 360 -15 c 0
EndSplineSet
Validated: 1
EndChar

StartChar: D
Encoding: 68 68 35
Width: 659
Flags: HW
LayerCount: 2
Fore
SplineSet
110 0 m 1
 110 725 l 1
 275 725 l 2
 350 725 410 710 460 680 c 128
 510 650 540 610 565 555 c 128
 590 500 600 440 600 365 c 0
 600 295 590 230 565 175 c 128
 540 120 510 75 460 45 c 128
 410 15 350 0 275 0 c 2
 110 0 l 1
145 35 m 1
 270 35 l 2
 340 35 390 45 435 75 c 128
 480 105 510 145 530 195 c 128
 550 245 560 300 560 365 c 0
 560 430 550 485 530 535 c 128
 510 585 480 620 435 650 c 128
 390 680 340 695 270 695 c 2
 145 695 l 1
 145 35 l 1
EndSplineSet
Validated: 1
EndChar

StartChar: E
Encoding: 69 69 36
Width: 559
Flags: HW
LayerCount: 2
Fore
SplineSet
110 0 m 1
 110 725 l 1
 500 725 l 1
 500 695 l 1
 145 695 l 1
 145 405 l 1
 445 405 l 1
 445 370 l 1
 145 370 l 1
 145 35 l 1
 510 35 l 1
 510 0 l 1
 110 0 l 1
EndSplineSet
Validated: 1
EndChar

StartChar: F
Encoding: 70 70 37
Width: 514
Flags: HW
LayerCount: 2
Fore
SplineSet
110 0 m 1
 110 725 l 1
 500 725 l 1
 500 695 l 1
 145 695 l 1
 145 390 l 1
 445 390 l 1
 445 360 l 1
 145 360 l 1
 145 0 l 1
 110 0 l 1
EndSplineSet
Validated: 1
EndChar

StartChar: G
Encoding: 71 71 38
Width: 659
Flags: HW
LayerCount: 2
Fore
SplineSet
370 -15 m 0
 310 -15 250 5 205 35 c 128
 160 65 125 110 100 165 c 128
 75 220 60 290 60 365 c 0
 60 420 70 475 85 520 c 128
 100 565 120 605 150 640 c 128
 180 675 210 700 250 715 c 128
 290 730 330 740 380 740 c 0
 430 740 470 730 500 710 c 128
 530 690 555 675 575 655 c 1
 550 630 l 1
 530 650 505 665 480 680 c 128
 455 695 420 705 380 705 c 0
 325 705 270 690 230 660 c 128
 190 630 155 595 135 545 c 128
 115 495 100 435 100 365 c 256
 100 295 115 235 135 185 c 128
 155 135 185 95 225 65 c 128
 265 35 315 20 370 20 c 0
 405 20 440 30 470 40 c 128
 500 50 520 60 540 80 c 1
 540 320 l 1
 365 320 l 1
 365 350 l 1
 580 350 l 1
 580 70 l 1
 555 45 530 25 495 10 c 128
 460 -5 415 -15 370 -15 c 0
EndSplineSet
Validated: 1
EndChar

StartChar: H
Encoding: 72 72 39
Width: 694
Flags: HW
LayerCount: 2
Fore
SplineSet
110 0 m 1
 110 725 l 1
 145 725 l 1
 145 405 l 1
 550 405 l 1
 550 725 l 1
 590 725 l 1
 590 0 l 1
 550 0 l 1
 550 370 l 1
 145 370 l 1
 145 0 l 1
 110 0 l 1
EndSplineSet
Validated: 1
EndChar

StartChar: I
Encoding: 73 73 40
Width: 254
Flags: HW
LayerCount: 2
Fore
SplineSet
110 0 m 1
 110 725 l 1
 145 725 l 1
 145 0 l 1
 110 0 l 1
EndSplineSet
Validated: 1
EndChar

StartChar: J
Encoding: 74 74 41
Width: 500
Flags: HW
LayerCount: 2
Fore
SplineSet
220 -15 m 0
 180 -15 150 -5 120 15 c 128
 90 35 65 55 45 90 c 1
 80 110 l 1
 100 80 115 55 140 40 c 128
 165 25 190 20 220 20 c 0
 265 20 305 35 325 65 c 128
 345 95 360 135 360 195 c 2
 360 725 l 1
 395 725 l 1
 395 190 l 2
 395 150 390 120 380 90 c 128
 370 60 350 35 325 15 c 128
 300 -5 265 -15 220 -15 c 0
EndSplineSet
Validated: 1
EndChar

StartChar: K
Encoding: 75 75 42
Width: 604
Flags: HW
LayerCount: 2
Fore
SplineSet
110 0 m 1
 110 725 l 1
 145 725 l 1
 145 310 l 1
 150 310 l 1
 515 725 l 1
 565 725 l 1
 330 460 l 1
 595 0 l 1
 550 0 l 1
 300 430 l 1
 145 255 l 1
 145 0 l 1
 110 0 l 1
EndSplineSet
Validated: 1
EndChar

StartChar: L
Encoding: 76 76 43
Width: 504
Flags: HW
LayerCount: 2
Fore
SplineSet
110 0 m 1
 110 725 l 1
 145 725 l 1
 145 35 l 1
 485 35 l 1
 485 0 l 1
 110 0 l 1
EndSplineSet
Validated: 1
EndChar

StartChar: M
Encoding: 77 77 44
Width: 769
Flags: HW
LayerCount: 2
Fore
SplineSet
110 0 m 1
 110 725 l 1
 170 725 l 1
 325 290 l 2
 335 265 345 235 355 205 c 128
 365 175 375 150 385 125 c 1
 390 125 l 1
 400 150 405 175 415 205 c 128
 425 235 435 265 445 290 c 2
 600 725 l 1
 660 725 l 1
 660 0 l 1
 625 0 l 1
 625 500 l 2
 625 520 625 545 625 565 c 128
 625 585 625 610 625 630 c 128
 625 650 625 670 625 690 c 1
 625 690 l 1
 565 530 l 1
 405 80 l 1
 365 80 l 1
 200 530 l 1
 145 690 l 1
 140 690 l 1
 140 670 145 650 145 630 c 128
 145 610 145 585 145 565 c 128
 145 545 145 520 145 500 c 2
 145 0 l 1
 110 0 l 1
EndSplineSet
Validated: 5
EndChar

StartChar: N
Encoding: 78 78 45
Width: 694
Flags: HW
LayerCount: 2
Fore
SplineSet
110 0 m 1
 110 725 l 1
 150 725 l 1
 470 195 l 1
 550 55 l 1
 555 55 l 1
 555 90 550 125 550 160 c 128
 550 195 550 225 550 260 c 2
 550 725 l 1
 585 725 l 1
 585 0 l 1
 545 0 l 1
 230 530 l 1
 145 670 l 1
 140 670 l 1
 140 635 145 605 145 575 c 128
 145 545 145 510 145 475 c 2
 145 0 l 1
 110 0 l 1
EndSplineSet
Validated: 1
EndChar

StartChar: O
Encoding: 79 79 46
Width: 709
Flags: HW
LayerCount: 2
Fore
SplineSet
355 -15 m 256
 300 -15 250 5 205 35 c 128
 160 65 125 110 100 165 c 128
 75 220 60 290 60 365 c 0
 60 440 75 510 100 565 c 128
 125 620 160 665 205 695 c 128
 250 725 300 740 355 740 c 256
 410 740 465 725 510 695 c 128
 555 665 590 620 615 565 c 128
 640 510 650 440 650 365 c 0
 650 290 640 220 615 165 c 128
 590 110 555 65 510 35 c 128
 465 5 410 -15 355 -15 c 256
355 20 m 0
 405 20 450 35 490 65 c 128
 530 95 560 135 580 185 c 128
 600 235 615 295 615 365 c 256
 615 435 600 495 580 545 c 128
 560 595 530 630 490 660 c 128
 450 690 405 705 355 705 c 0
 305 705 265 690 225 660 c 128
 185 630 155 595 135 545 c 128
 115 495 100 435 100 365 c 256
 100 295 115 235 135 185 c 128
 155 135 185 95 225 65 c 128
 265 35 305 20 355 20 c 0
EndSplineSet
Validated: 1
EndChar

StartChar: P
Encoding: 80 80 47
Width: 594
Flags: HW
LayerCount: 2
Fore
SplineSet
110 0 m 1
 110 725 l 1
 285 725 l 2
 340 725 385 720 425 705 c 128
 465 690 495 675 515 645 c 128
 535 615 545 580 545 530 c 0
 545 485 535 440 515 410 c 128
 495 380 470 360 430 345 c 128
 390 330 345 320 290 320 c 2
 145 320 l 1
 145 0 l 1
 110 0 l 1
145 355 m 1
 275 355 l 2
 350 355 410 370 450 395 c 128
 490 420 505 465 505 530 c 0
 505 595 490 635 450 660 c 128
 410 685 350 695 270 695 c 2
 145 695 l 1
 145 355 l 1
EndSplineSet
Validated: 1
EndChar

StartChar: Q
Encoding: 81 81 48
Width: 709
Flags: HW
LayerCount: 2
Fore
SplineSet
355 -15 m 256
 300 -15 250 5 205 35 c 128
 160 65 125 110 100 165 c 128
 75 220 60 290 60 365 c 0
 60 440 75 510 100 565 c 128
 125 620 160 665 205 695 c 128
 250 725 300 740 355 740 c 256
 410 740 465 725 510 695 c 128
 555 665 590 620 615 565 c 128
 640 510 650 440 650 365 c 0
 650 290 640 220 615 165 c 128
 590 110 555 65 510 35 c 128
 465 5 410 -15 355 -15 c 256
355 20 m 0
 405 20 450 35 490 65 c 128
 530 95 560 135 580 185 c 128
 600 235 615 295 615 365 c 256
 615 435 600 495 580 545 c 128
 560 595 530 630 490 660 c 128
 450 690 405 705 355 705 c 0
 305 705 265 690 225 660 c 128
 185 630 155 595 135 545 c 128
 115 495 100 435 100 365 c 256
 100 295 115 235 135 185 c 128
 155 135 185 95 225 65 c 128
 265 35 305 20 355 20 c 0
565 -170 m 0
 525 -170 490 -160 460 -145 c 128
 430 -130 400 -110 380 -85 c 128
 360 -60 340 -30 330 0 c 1
 370 0 l 1
 380 -25 395 -50 415 -70 c 128
 435 -90 455 -105 480 -115 c 128
 505 -125 535 -130 570 -130 c 0
 585 -130 600 -130 610 -130 c 128
 620 -130 630 -125 640 -120 c 1
 650 -155 l 1
 640 -160 630 -160 615 -165 c 128
 600 -170 580 -170 565 -170 c 0
EndSplineSet
Validated: 5
EndChar

StartChar: R
Encoding: 82 82 49
Width: 584
Flags: HW
LayerCount: 2
Fore
SplineSet
110 0 m 1
 110 725 l 1
 310 725 l 2
 360 725 400 720 435 705 c 128
 470 690 495 670 515 645 c 128
 535 620 545 585 545 540 c 0
 545 495 535 460 515 430 c 128
 495 400 470 380 435 365 c 128
 400 350 360 340 310 340 c 2
 145 340 l 1
 145 0 l 1
 110 0 l 1
145 375 m 1
 300 375 l 2
 365 375 415 390 450 415 c 128
 485 440 505 485 505 540 c 0
 505 595 485 635 450 660 c 128
 415 685 365 695 300 695 c 2
 145 695 l 1
 145 375 l 1
515 0 m 1
 300 355 l 1
 345 355 l 1
 555 0 l 1
 515 0 l 1
EndSplineSet
Validated: 5
EndChar

StartChar: S
Encoding: 83 83 50
Width: 564
Flags: HW
LayerCount: 2
Fore
SplineSet
295 -15 m 0
 240 -15 195 0 155 20 c 128
 115 40 80 65 55 95 c 1
 80 125 l 1
 105 95 140 70 175 50 c 128
 210 30 250 20 295 20 c 0
 355 20 400 35 435 65 c 128
 470 95 485 130 485 175 c 0
 485 210 475 235 465 255 c 128
 455 275 440 290 420 300 c 128
 400 310 375 325 350 335 c 2
 240 385 l 2
 220 395 200 405 175 420 c 128
 150 435 130 450 115 475 c 128
 100 500 90 530 90 565 c 256
 90 600 100 630 120 655 c 128
 140 680 160 700 190 715 c 128
 220 730 260 740 300 740 c 0
 345 740 380 730 415 715 c 128
 450 700 475 680 495 655 c 1
 475 630 l 1
 455 655 430 670 400 685 c 128
 370 700 335 705 300 705 c 0
 250 705 205 690 175 665 c 128
 145 640 130 610 130 570 c 0
 130 540 135 515 150 495 c 128
 165 475 180 460 200 450 c 128
 220 440 240 430 255 420 c 2
 370 370 l 2
 395 360 420 345 445 330 c 128
 470 315 485 295 500 270 c 128
 515 245 520 215 520 180 c 0
 520 145 515 110 495 80 c 128
 475 50 450 25 415 10 c 128
 380 -5 340 -15 295 -15 c 0
EndSplineSet
Validated: 1
EndChar

StartChar: T
Encoding: 84 84 51
Width: 569
Flags: HW
LayerCount: 2
Fore
SplineSet
265 0 m 1
 265 695 l 1
 35 695 l 1
 35 725 l 1
 540 725 l 1
 540 695 l 1
 305 695 l 1
 305 0 l 1
 265 0 l 1
EndSplineSet
Validated: 1
EndChar

StartChar: U
Encoding: 85 85 52
Width: 689
Flags: HW
LayerCount: 2
Fore
SplineSet
345 -15 m 256
 315 -15 290 -10 260 0 c 128
 230 10 210 25 185 45 c 128
 160 65 145 95 130 130 c 128
 115 165 110 215 110 270 c 2
 110 725 l 1
 145 725 l 1
 145 280 l 2
 145 215 155 165 175 125 c 128
 195 85 220 60 250 45 c 128
 280 30 310 20 345 20 c 0
 380 20 415 30 445 45 c 128
 475 60 500 85 520 125 c 128
 540 165 550 215 550 280 c 2
 550 725 l 1
 585 725 l 1
 585 270 l 2
 585 215 580 165 565 130 c 128
 550 95 535 65 510 45 c 128
 485 25 465 10 435 0 c 128
 405 -10 375 -15 345 -15 c 256
EndSplineSet
Validated: 1
EndChar

StartChar: V
Encoding: 86 86 53
Width: 529
Flags: HW
LayerCount: 2
Fore
SplineSet
250 0 m 1
 5 725 l 1
 45 725 l 1
 185 290 l 2
 200 245 215 205 225 170 c 128
 235 135 250 90 265 45 c 1
 270 45 l 1
 285 90 300 135 310 170 c 128
 320 205 335 245 350 290 c 2
 490 725 l 1
 525 725 l 1
 285 0 l 1
 250 0 l 1
EndSplineSet
Validated: 1
EndChar

StartChar: W
Encoding: 87 87 54
Width: 839
Flags: HW
LayerCount: 2
Fore
SplineSet
200 0 m 1
 35 725 l 1
 70 725 l 1
 170 290 l 2
 180 250 185 210 195 170 c 128
 205 130 210 90 220 50 c 1
 225 50 l 1
 235 90 245 130 255 170 c 128
 265 210 275 250 285 290 c 2
 400 725 l 1
 440 725 l 1
 560 290 l 2
 570 250 580 210 590 170 c 128
 600 130 610 90 620 50 c 1
 625 50 l 1
 635 90 640 130 650 170 c 128
 660 210 665 250 675 290 c 2
 770 725 l 1
 805 725 l 1
 640 0 l 1
 600 0 l 1
 465 520 l 2
 460 550 450 575 445 600 c 128
 440 625 430 650 425 680 c 1
 420 680 l 1
 415 650 405 625 400 600 c 128
 395 575 380 550 375 520 c 2
 240 0 l 1
 200 0 l 1
EndSplineSet
Validated: 1
EndChar

StartChar: X
Encoding: 88 88 55
Width: 514
Flags: HW
LayerCount: 2
Fore
SplineSet
20 0 m 1
 240 375 l 1
 35 725 l 1
 75 725 l 1
 200 505 l 2
 210 490 220 475 230 460 c 128
 240 445 245 425 260 405 c 1
 265 405 l 1
 275 425 285 445 295 460 c 128
 305 475 310 490 320 505 c 2
 445 725 l 1
 485 725 l 1
 280 375 l 1
 500 0 l 1
 460 0 l 1
 325 230 l 2
 315 245 305 265 295 285 c 128
 285 305 275 325 260 345 c 1
 255 345 l 1
 245 325 230 305 220 285 c 128
 210 265 200 245 190 230 c 2
 60 0 l 1
 20 0 l 1
EndSplineSet
Validated: 1
EndChar

StartChar: Y
Encoding: 89 89 56
Width: 479
Flags: HW
LayerCount: 2
Fore
SplineSet
220 0 m 1
 220 300 l 1
 5 725 l 1
 45 725 l 1
 160 490 l 2
 175 465 185 440 200 415 c 128
 215 390 225 360 240 335 c 1
 245 335 l 1
 260 360 270 390 285 415 c 128
 300 440 315 465 325 490 c 2
 440 725 l 1
 475 725 l 1
 260 300 l 1
 260 0 l 1
 220 0 l 1
EndSplineSet
Validated: 1
EndChar

StartChar: Z
Encoding: 90 90 57
Width: 589
Flags: HW
LayerCount: 2
Fore
SplineSet
55 0 m 1
 55 20 l 1
 485 695 l 1
 95 695 l 1
 95 725 l 1
 535 725 l 1
 535 705 l 1
 105 35 l 1
 540 35 l 1
 540 0 l 1
 55 0 l 1
EndSplineSet
Validated: 1
EndChar

StartChar: bracketleft
Encoding: 91 91 58
Width: 1000
Flags: HW
LayerCount: 2
Fore
SplineSet
182 164 m 1
 830 164 l 1
 830 134 l 1
 182 134 l 1
 182 164 l 1
198 321 m 1
 869 321 l 1
 869 291 l 1
 198 291 l 1
 198 321 l 1
70 -16 m 1
 930 -16 l 1
 930 -45 l 1
 70 -45 l 1
 70 -16 l 1
483 422 m 1
 513 422 l 1
 513 -33 l 1
 483 -33 l 1
 483 422 l 1
210 602 m 1
 210 476 l 1
 799 476 l 1
 799 602 l 1
 210 602 l 1
210 755 m 1
 210 631 l 1
 799 631 l 1
 799 755 l 1
 210 755 l 1
181 784 m 1
 828 784 l 1
 828 447 l 1
 181 447 l 1
 181 784 l 1
259 435 m 1
 288 427 l 1
 272 393.666666667 253.166666667 361.333333333 231.5 330 c 128
 209.833333333 298.666666667 187 269.333333333 163 242 c 128
 139 214.666666667 114.333333333 190.333333333 89 169 c 1
 87.6666666667 171 85.5 173.166666667 82.5 175.5 c 128
 79.5 177.833333333 76.3333333333 180.166666667 73 182.5 c 128
 69.6666666667 184.833333333 66.3333333333 186.666666667 63 188 c 1
 102.333333333 218.666666667 139.166666667 255.666666667 173.5 299 c 128
 207.833333333 342.333333333 236.333333333 387.666666667 259 435 c 1
EndSplineSet
Validated: 5
EndChar

StartChar: backslash
Encoding: 92 92 59
Width: 394
Flags: HW
LayerCount: 2
Fore
SplineSet
350 -175 m 1
 5 780 l 1
 35 780 l 1
 385 -175 l 1
 350 -175 l 1
EndSplineSet
Validated: 1
EndChar

StartChar: bracketright
Encoding: 93 93 60
Width: 1000
Flags: HW
LayerCount: 2
Fore
SplineSet
607 776 m 1
 903 776 l 1
 903 747 l 1
 607 747 l 1
 607 776 l 1
607 543 m 1
 903 543 l 1
 903 514 l 1
 607 514 l 1
 607 543 l 1
605 305 m 1
 906 305 l 1
 906 276 l 1
 605 276 l 1
 605 305 l 1
888 776 m 1
 917 776 l 1
 917 -11 l 2
 917 -25 914.833333333 -35.5 910.5 -42.5 c 128
 906.166666667 -49.5 898.333333333 -54.6666666667 887 -58 c 0
 876.333333333 -60.6666666667 859.833333333 -62.3333333333 837.5 -63 c 128
 815.166666667 -63.6666666667 786 -64 750 -64 c 1
 749.333333333 -59.3333333333 747.666666667 -54 745 -48 c 128
 742.333333333 -42 739.666666667 -36.6666666667 737 -32 c 1
 768.333333333 -32.6666666667 796 -33 820 -33 c 128
 844 -33 860 -32.6666666667 868 -32 c 0
 875.333333333 -31.3333333333 880.5 -29.6666666667 883.5 -27 c 128
 886.5 -24.3333333333 888 -19 888 -11 c 2
 888 776 l 1
594 776 m 1
 623 776 l 1
 623 417 l 2
 623 379.666666667 621.833333333 339.666666667 619.5 297 c 128
 617.166666667 254.333333333 612.5 211 605.5 167 c 128
 598.5 123 588 80.1666666667 574 38.5 c 128
 560 -3.16666666667 541 -41.6666666667 517 -77 c 1
 515.666666667 -75 513.5 -72.8333333333 510.5 -70.5 c 128
 507.5 -68.1666666667 504.333333333 -65.8333333333 501 -63.5 c 128
 497.666666667 -61.1666666667 494.666666667 -59.6666666667 492 -59 c 1
 523.333333333 -12.3333333333 546.166666667 38.5 560.5 93.5 c 128
 574.833333333 148.5 584 204 588 260 c 128
 592 316 594 368.333333333 594 417 c 2
 594 776 l 1
62 682 m 1
 530 682 l 1
 530 653 l 1
 62 653 l 1
 62 682 l 1
166 534 m 1
 435 534 l 1
 435 505 l 1
 166 505 l 1
 166 534 l 1
167 373 m 1
 436 373 l 1
 436 343 l 1
 167 343 l 1
 167 373 l 1
47 208 m 1
 537 208 l 1
 537 179 l 1
 47 179 l 1
 47 208 l 1
153 818 m 1
 182 818 l 1
 182 192 l 1
 153 192 l 1
 153 818 l 1
421 818 m 1
 450 818 l 1
 450 192 l 1
 421 192 l 1
 421 818 l 1
201 143 m 1
 231 136 l 1
 213 97.3333333333 190.666666667 59.8333333333 164 23.5 c 128
 137.333333333 -12.8333333333 110.333333333 -43.6666666667 83 -69 c 0
 81.6666666667 -67.6666666667 79.3333333333 -65.8333333333 76 -63.5 c 128
 71 -60 71 -60 66 -56.5 c 128
 62.6666666667 -54.1666666667 59.6666666667 -52.3333333333 57 -51 c 1
 86.3333333333 -26.3333333333 113.666666667 3 139 37 c 128
 164.333333333 71 185 106.333333333 201 143 c 1
340 126 m 1
 365 138 l 1
 378.333333333 122.666666667 391.333333333 105.833333333 404 87.5 c 128
 416.666666667 69.1666666667 428.333333333 51.3333333333 439 34 c 128
 449.666666667 16.6666666667 458 1 464 -13 c 1
 438 -28 l 1
 432.666666667 -14 424.666666667 1.83333333333 414 19.5 c 128
 403.333333333 37.1666666667 391.5 55.5 378.5 74.5 c 128
 365.5 93.5 352.666666667 110.666666667 340 126 c 1
EndSplineSet
Validated: 5
EndChar

StartChar: asciicircum
Encoding: 94 94 61
Width: 1000
Flags: HW
LayerCount: 2
Fore
SplineSet
238 772 m 1
 781 772 l 1
 781 743 l 1
 238 743 l 1
 238 772 l 1
237 529 m 1
 785 529 l 1
 785 500 l 1
 237 500 l 1
 237 529 l 1
226 283 m 1
 782 283 l 1
 782 254 l 1
 226 254 l 1
 226 283 l 1
227 772 m 1
 256 772 l 1
 256 486 l 2
 256 442.666666667 253.833333333 396.833333333 249.5 348.5 c 128
 245.166666667 300.166666667 236.333333333 251.166666667 223 201.5 c 128
 209.666666667 151.833333333 189.833333333 103.666666667 163.5 57 c 128
 137.166666667 10.3333333333 102 -32.6666666667 58 -72 c 1
 56.6666666667 -69.3333333333 54.8333333333 -66.6666666667 52.5 -64 c 128
 50.1666666667 -61.3333333333 47.6666666667 -58.6666666667 45 -56 c 128
 42.3333333333 -53.3333333333 39.6666666667 -51.3333333333 37 -50 c 1
 79.6666666667 -11.3333333333 113.666666667 30.3333333333 139 75 c 128
 164.333333333 119.666666667 183.333333333 165.5 196 212.5 c 128
 208.666666667 259.5 217 306.333333333 221 353 c 128
 225 399.666666667 227 444 227 486 c 2
 227 772 l 1
771 772 m 1
 801 772 l 1
 801 -1 l 2
 801 -19 797.833333333 -32.1666666667 791.5 -40.5 c 128
 785.166666667 -48.8333333333 774.666666667 -54.6666666667 760 -58 c 0
 745.333333333 -60.6666666667 721.666666667 -62.3333333333 689 -63 c 128
 656.333333333 -63.6666666667 612.333333333 -64 557 -64 c 1
 556.333333333 -60.6666666667 555.166666667 -57.1666666667 553.5 -53.5 c 128
 551 -48 551 -48 548.5 -42.5 c 128
 546.833333333 -38.8333333333 545 -35.3333333333 543 -32 c 1
 575 -32.6666666667 604.5 -33 631.5 -33 c 128
 658.5 -33 681.5 -32.8333333333 700.5 -32.5 c 128
 719.5 -32.1666666667 732.666666667 -32 740 -32 c 0
 752 -31.3333333333 760.166666667 -28.8333333333 764.5 -24.5 c 128
 768.833333333 -20.1666666667 771 -12.3333333333 771 -1 c 2
 771 772 l 1
EndSplineSet
Validated: 524293
EndChar

StartChar: underscore
Encoding: 95 95 62
Width: 1000
Flags: HW
LayerCount: 2
Fore
SplineSet
199 755 m 1
 812 755 l 1
 812 -52 l 1
 782 -52 l 1
 782 725 l 1
 229 725 l 1
 229 -60 l 1
 199 -60 l 1
 199 755 l 1
217 398 m 1
 795 398 l 1
 795 369 l 1
 217 369 l 1
 217 398 l 1
215 34 m 1
 798 34 l 1
 798 5 l 1
 215 5 l 1
 215 34 l 1
EndSplineSet
Validated: 5
EndChar

StartChar: grave
Encoding: 96 96 63
Width: 584
Flags: HW
LayerCount: 2
Fore
SplineSet
330 630 m 1
 175 795 l 1
 205 820 l 1
 350 650 l 1
 330 630 l 1
EndSplineSet
Validated: 1
EndChar

StartChar: a
Encoding: 97 97 64
Width: 1000
Flags: HW
LayerCount: 2
Fore
SplineSet
50 407 m 1
 955 407 l 1
 955 374 l 1
 50 374 l 1
 50 407 l 1
EndSplineSet
Validated: 1
EndChar

StartChar: b
Encoding: 98 98 65
Width: 1000
Flags: HW
LayerCount: 2
Fore
SplineSet
145 682 m 1
 856 682 l 1
 856 653 l 1
 145 653 l 1
 145 682 l 1
59 76 m 1
 942 76 l 1
 942 46 l 1
 59 46 l 1
 59 76 l 1
EndSplineSet
Validated: 1
EndChar

StartChar: c
Encoding: 99 99 66
Width: 1000
Flags: HW
LayerCount: 2
Fore
SplineSet
127 732 m 1
 877 732 l 1
 877 703 l 1
 127 703 l 1
 127 732 l 1
186 400 m 1
 800 400 l 1
 800 371 l 1
 186 371 l 1
 186 400 l 1
68 44 m 1
 933 44 l 1
 933 15 l 1
 68 15 l 1
 68 44 l 1
EndSplineSet
Validated: 1
EndChar

StartChar: d
Encoding: 100 100 67
Width: 1000
Flags: HW
LayerCount: 2
Fore
SplineSet
100 740 m 1
 897 740 l 1
 897 -29 l 1
 868 -29 l 1
 868 711 l 1
 130 711 l 1
 130 -37 l 1
 100 -37 l 1
 100 740 l 1
116 77 m 1
 888 77 l 1
 888 47 l 1
 116 47 l 1
 116 77 l 1
373 731 m 1
 403 731 l 1
 401.666666667 653 398.166666667 584.5 392.5 525.5 c 128
 386.833333333 466.5 376.5 415.166666667 361.5 371.5 c 128
 346.5 327.833333333 324.5 290.5 295.5 259.5 c 128
 266.5 228.5 227.666666667 202.333333333 179 181 c 1
 177.666666667 183.666666667 175.833333333 186.333333333 173.5 189 c 128
 171.166666667 191.666666667 168.666666667 194.333333333 166 197 c 128
 163.333333333 199.666666667 160.666666667 201.666666667 158 203 c 1
 205.333333333 223 243 247.666666667 271 277 c 128
 299 306.333333333 320.166666667 342 334.5 384 c 128
 348.833333333 426 358.5 475.5 363.5 532.5 c 128
 368.5 589.5 371.666666667 655.666666667 373 731 c 1
585 719 m 1
 615 719 l 1
 615 348 l 2
 615 332.666666667 617 322 621 316 c 128
 625 310 632.666666667 307 644 307 c 0
 651 307 651 307 669 307 c 128
 687 307 687 307 709 307 c 128
 731 307 731 307 749 307 c 128
 767 307 767 307 774 307 c 0
 781.333333333 307 790.333333333 307.333333333 801 308 c 128
 811.666666667 308.666666667 820 309.333333333 826 310 c 1
 826.666666667 306 827.333333333 301 828 295 c 128
 828.666666667 289 829.333333333 284.333333333 830 281 c 1
 825.333333333 280.333333333 817.833333333 279.833333333 807.5 279.5 c 128
 797.166666667 279.166666667 786.333333333 279 775 279 c 0
 768 279 768 279 748.5 279 c 128
 729 279 729 279 707 279 c 128
 685 279 685 279 667 279 c 128
 649 279 649 279 644 279 c 0
 628.666666667 279 616.666666667 281.166666667 608 285.5 c 128
 599.333333333 289.833333333 593.333333333 297 590 307 c 128
 586.666666667 317 585 331 585 349 c 2
 585 719 l 1
EndSplineSet
Validated: 524293
EndChar

StartChar: e
Encoding: 101 101 68
Width: 1000
Flags: HW
LayerCount: 2
Fore
SplineSet
128 727 m 1
 865 727 l 1
 865 698 l 1
 128 698 l 1
 128 727 l 1
59 21 m 1
 942 21 l 1
 942 -9 l 1
 59 -9 l 1
 59 21 l 1
435 717 m 1
 465 717 l 1
 457 663 447.833333333 603.833333333 437.5 539.5 c 128
 427.166666667 475.166666667 416.666666667 410.5 406 345.5 c 128
 395.333333333 280.5 384.833333333 219 374.5 161 c 128
 364.166666667 103 354.333333333 52.6666666667 345 10 c 1
 315 11 l 1
 324.333333333 53.6666666667 334.333333333 104.333333333 345 163 c 128
 355.666666667 221.666666667 366.666666667 283.5 378 348.5 c 128
 389.333333333 413.5 399.833333333 478 409.5 542 c 128
 419.166666667 606 427.666666667 664.333333333 435 717 c 1
182 434 m 1
 752 434 l 1
 752 406 l 1
 182 406 l 1
 182 434 l 1
738 434 m 1
 741 434 l 1
 747 437 l 1
 768 433 l 1
 766 406.333333333 763.5 375.5 760.5 340.5 c 128
 757.5 305.5 754 268.5 750 229.5 c 128
 746 190.5 741.833333333 152 737.5 114 c 128
 733.166666667 76 729 41 725 9 c 1
 696 12 l 1
 700 44 704.166666667 79.1666666667 708.5 117.5 c 128
 712.833333333 155.833333333 716.833333333 194.5 720.5 233.5 c 128
 724.166666667 272.5 727.5 309 730.5 343 c 128
 735 394 735 394 738 428 c 2
 738 434 l 1
EndSplineSet
Validated: 5
EndChar

StartChar: f
Encoding: 102 102 69
Width: 1000
Flags: HW
LayerCount: 2
Fore
SplineSet
67 552 m 1
 936 552 l 1
 936 523 l 1
 67 523 l 1
 67 552 l 1
327 377 m 1
 357 368 l 1
 332.333333333 315.333333333 304.833333333 262.666666667 274.5 210 c 128
 244.166666667 157.333333333 212.666666667 107.5 180 60.5 c 128
 147.333333333 13.5 114.666666667 -28.6666666667 82 -66 c 1
 80 -64 77.3333333333 -61.6666666667 74 -59 c 128
 70.6666666667 -56.3333333333 67.1666666667 -53.6666666667 63.5 -51 c 128
 59.8333333333 -48.3333333333 56.6666666667 -46 54 -44 c 1
 87.3333333333 -8 120.5 33 153.5 79 c 128
 186.5 125 217.833333333 173.5 247.5 224.5 c 128
 277.166666667 275.5 303.666666667 326.333333333 327 377 c 1
636 375 m 1
 662 386 l 1
 688 351.333333333 714.5 314.666666667 741.5 276 c 128
 768.5 237.333333333 795 198.5 821 159.5 c 128
 847 120.5 871 83.6666666667 893 49 c 128
 915 14.3333333333 933.666666667 -16.3333333333 949 -43 c 1
 921 -59 l 1
 906.333333333 -32.3333333333 888.166666667 -1.33333333333 866.5 34 c 128
 844.833333333 69.3333333333 821.166666667 106.666666667 795.5 146 c 128
 769.833333333 185.333333333 743.333333333 224.666666667 716 264 c 128
 688.666666667 303.333333333 662 340.333333333 636 375 c 1
428 815 m 1
 456 823 l 1
 468 800.333333333 480 775.833333333 492 749.5 c 128
 504 723.166666667 515.333333333 698 526 674 c 128
 536.666666667 650 545.333333333 629.333333333 552 612 c 1
 524 599 l 1
 517.333333333 617 508.833333333 638.333333333 498.5 663 c 128
 488.166666667 687.666666667 476.833333333 713.333333333 464.5 740 c 128
 452.166666667 766.666666667 440 791.666666667 428 815 c 1
EndSplineSet
Validated: 1
EndChar

StartChar: g
Encoding: 103 103 70
Width: 1000
Flags: HW
LayerCount: 2
Fore
SplineSet
57 416 m 1
 935 566 l 1
 941 537 l 1
 63 388 l 1
 57 416 l 1
353 817 m 1
 382 817 l 1
 382 73 l 2
 382 54.3333333333 384.5 39.5 389.5 28.5 c 128
 394.5 17.5 403.833333333 9.66666666667 417.5 5 c 128
 431.166666667 0.333333333333 450.666666667 -2 476 -2 c 0
 488 -2 488 -2 518 -2 c 128
 548 -2 548 -2 587.5 -2 c 128
 627 -2 627 -2 667.5 -2 c 128
 708 -2 708 -2 740.5 -2 c 128
 773 -2 773 -2 789 -2 c 0
 811.666666667 -2 828.5 2.66666666667 839.5 12 c 128
 850.5 21.3333333333 858.333333333 37.6666666667 863 61 c 128
 867.666666667 84.3333333333 871 117 873 159 c 1
 876.333333333 157 879.833333333 155 883.5 153 c 128
 887.166666667 151 890.833333333 149.333333333 894.5 148 c 128
 898.166666667 146.666666667 901.333333333 145.333333333 904 144 c 1
 901.333333333 100 896.833333333 65.3333333333 890.5 40 c 128
 884.166666667 14.6666666667 873 -3.5 857 -14.5 c 128
 841 -25.5 816.666666667 -31 784 -31 c 0
 777 -31 777 -31 746.5 -31 c 128
 716 -31 716 -31 674.5 -31 c 128
 633 -31 633 -31 591 -31 c 128
 549 -31 549 -31 518.5 -31 c 128
 488 -31 488 -31 481 -31 c 0
 449 -31 423.666666667 -28.1666666667 405 -22.5 c 128
 386.333333333 -16.8333333333 373 -6.33333333333 365 9 c 128
 357 24.3333333333 353 46.3333333333 353 75 c 2
 353 817 l 1
EndSplineSet
Validated: 524293
EndChar

StartChar: h
Encoding: 104 104 71
Width: 1000
Flags: HW
LayerCount: 2
Fore
SplineSet
333 728 m 1
 364 724 l 1
 356.666666667 652 347 579.333333333 335 506 c 128
 323 432.666666667 306.166666667 361.166666667 284.5 291.5 c 128
 262.833333333 221.833333333 234.166666667 156.833333333 198.5 96.5 c 128
 162.833333333 36.1666666667 117.666666667 -17 63 -63 c 1
 61.6666666667 -61 59.6666666667 -58.8333333333 57 -56.5 c 128
 53 -53 53 -53 49 -49.5 c 128
 46.3333333333 -47.1666666667 43.6666666667 -45.3333333333 41 -44 c 1
 95.6666666667 1.33333333333 140.5 53.6666666667 175.5 113 c 128
 210.5 172.333333333 238.5 236.166666667 259.5 304.5 c 128
 280.5 372.833333333 296.5 443 307.5 515 c 128
 318.5 587 327 658 333 728 c 1
625 751 m 1
 625.666666667 735.666666667 627.833333333 709.833333333 631.5 673.5 c 128
 635.166666667 637.166666667 641.166666667 594.333333333 649.5 545 c 128
 657.833333333 495.666666667 669.666666667 443.166666667 685 387.5 c 128
 700.333333333 331.833333333 720.333333333 276.666666667 745 222 c 128
 769.666666667 167.333333333 800.166666667 116.666666667 836.5 70 c 128
 872.833333333 23.3333333333 915.666666667 -15.6666666667 965 -47 c 1
 961 -49.6666666667 956.833333333 -52.6666666667 952.5 -56 c 128
 948.166666667 -59.3333333333 944.333333333 -62.3333333333 941 -65 c 1
 891 -33 847.833333333 7 811.5 55 c 128
 775.166666667 103 744.666666667 154.666666667 720 210 c 128
 695.333333333 265.333333333 675.166666667 321.333333333 659.5 378 c 128
 643.833333333 434.666666667 631.833333333 488.166666667 623.5 538.5 c 128
 615.166666667 588.833333333 609.333333333 632.666666667 606 670 c 128
 602.666666667 707.333333333 600.333333333 734 599 750 c 1
 625 751 l 1
EndSplineSet
Validated: 524289
EndChar

StartChar: i
Encoding: 105 105 72
Width: 1000
Flags: HW
LayerCount: 2
Fore
SplineSet
385 822 m 1
 415 822 l 1
 414.333333333 748.666666667 412.833333333 676.166666667 410.5 604.5 c 128
 408.166666667 532.833333333 401.666666667 463.5 391 396.5 c 128
 380.333333333 329.5 363 266.833333333 339 208.5 c 128
 315 150.166666667 281.333333333 97.3333333333 238 50 c 128
 194.666666667 2.66666666667 138.666666667 -37.3333333333 70 -70 c 0
 68.6666666667 -68 66.5 -65.6666666667 63.5 -63 c 128
 60.5 -60.3333333333 57.3333333333 -57.6666666667 54 -55 c 128
 50.6666666667 -52.3333333333 47.6666666667 -50 45 -48 c 1
 113 -17.3333333333 168.5 21 211.5 67 c 128
 254.5 113 287.833333333 164.833333333 311.5 222.5 c 128
 335.166666667 280.166666667 352.166666667 341.666666667 362.5 407 c 128
 372.833333333 472.333333333 379.166666667 540.166666667 381.5 610.5 c 128
 383.833333333 680.833333333 385 751.333333333 385 822 c 1
87 563 m 1
 710 563 l 1
 710 533 l 1
 87 533 l 1
 87 563 l 1
685 563 m 1
 715 563 l 1
 715 10 l 2
 715 -4 717.5 -13.3333333333 722.5 -18 c 128
 727.5 -22.6666666667 739.333333333 -25 758 -25 c 0
 764 -25 764 -25 783 -25 c 128
 802 -25 802 -25 824.5 -25 c 128
 847 -25 847 -25 867 -25 c 128
 887 -25 887 -25 896 -25 c 0
 906.666666667 -25 914.666666667 -21.5 920 -14.5 c 128
 925.333333333 -7.5 929.166666667 5.83333333333 931.5 25.5 c 128
 933.833333333 45.1666666667 935.333333333 74.3333333333 936 113 c 1
 941 110 941 110 946 107 c 128
 949.333333333 105 952.666666667 103.333333333 956 102 c 128
 961 100 961 100 966 98 c 1
 964.666666667 58.6666666667 962.166666667 27.8333333333 958.5 5.5 c 128
 954.833333333 -16.8333333333 948.333333333 -32.5 939 -41.5 c 128
 929.666666667 -50.5 915.333333333 -55 896 -55 c 0
 891 -55 891 -55 871.5 -55 c 128
 852 -55 852 -55 827.5 -55 c 128
 803 -55 803 -55 783.5 -55 c 128
 764 -55 764 -55 759 -55 c 0
 740.333333333 -55 725.5 -53.1666666667 714.5 -49.5 c 128
 703.5 -45.8333333333 695.833333333 -39.3333333333 691.5 -30 c 128
 687.166666667 -20.6666666667 685 -7 685 11 c 2
 685 563 l 1
EndSplineSet
Validated: 524293
EndChar

StartChar: j
Encoding: 106 106 73
Width: 1000
Flags: HW
LayerCount: 2
Fore
SplineSet
62 443 m 1
 945 443 l 1
 945 414 l 1
 62 414 l 1
 62 443 l 1
486 829 m 1
 516 829 l 1
 516 -70 l 1
 486 -70 l 1
 486 829 l 1
EndSplineSet
Validated: 5
EndChar

StartChar: k
Encoding: 107 107 74
Width: 494
Flags: HW
LayerCount: 2
Fore
SplineSet
105 0 m 1
 105 795 l 1
 140 795 l 1
 140 195 l 1
 145 195 l 1
 415 525 l 1
 455 525 l 1
 285 320 l 1
 485 0 l 1
 445 0 l 1
 265 290 l 1
 140 145 l 1
 140 0 l 1
 105 0 l 1
EndSplineSet
Validated: 1
EndChar

StartChar: l
Encoding: 108 108 75
Width: 250
Flags: HW
LayerCount: 2
Fore
SplineSet
160 -15 m 0
 150 -15 140 -10 130 -5 c 128
 120 0 115 10 110 20 c 128
 105 30 105 45 105 60 c 2
 105 795 l 1
 140 795 l 1
 140 55 l 2
 140 45 140 35 145 30 c 128
 150 25 160 20 165 20 c 0
 165 20 165 20 170 20 c 128
 175 20 170 20 180 20 c 1
 190 -10 l 1
 185 -10 180 -10 175 -10 c 128
 170 -10 165 -15 160 -15 c 0
EndSplineSet
Validated: 1
EndChar

StartChar: m
Encoding: 109 109 76
Width: 884
Flags: HW
LayerCount: 2
Fore
SplineSet
105 0 m 1
 105 525 l 1
 135 525 l 1
 140 445 l 1
 145 445 l 1
 170 470 195 490 225 510 c 128
 255 530 280 540 310 540 c 0
 355 540 390 530 410 510 c 128
 430 490 445 465 455 430 c 1
 485 465 515 490 545 510 c 128
 575 530 605 540 635 540 c 0
 685 540 725 525 750 490 c 128
 775 455 790 410 790 340 c 2
 790 0 l 1
 755 0 l 1
 755 335 l 2
 755 395 745 435 725 465 c 128
 705 495 675 505 630 505 c 0
 605 505 580 495 555 480 c 128
 530 465 495 440 465 405 c 1
 465 0 l 1
 430 0 l 1
 430 335 l 2
 430 395 420 435 400 465 c 128
 380 495 350 505 305 505 c 0
 280 505 260 495 230 480 c 128
 200 465 170 440 140 405 c 1
 140 0 l 1
 105 0 l 1
EndSplineSet
Validated: 1
EndChar

StartChar: n
Encoding: 110 110 77
Width: 579
Flags: HW
LayerCount: 2
Fore
SplineSet
105 0 m 1
 105 525 l 1
 135 525 l 1
 140 445 l 1
 145 445 l 1
 170 470 195 490 225 510 c 128
 255 530 290 540 325 540 c 0
 380 540 420 525 445 490 c 128
 470 455 485 410 485 340 c 2
 485 0 l 1
 450 0 l 1
 450 335 l 2
 450 395 440 435 420 465 c 128
 400 495 365 505 320 505 c 0
 285 505 255 495 230 480 c 128
 205 465 175 440 140 405 c 1
 140 0 l 1
 105 0 l 1
EndSplineSet
Validated: 1
EndChar

StartChar: o
Encoding: 111 111 78
Width: 584
Flags: HW
LayerCount: 2
Fore
SplineSet
295 -15 m 256
 255 -15 210 0 175 20 c 128
 140 40 110 75 90 115 c 128
 70 155 60 200 60 260 c 0
 60 320 70 375 90 415 c 128
 110 455 140 490 175 510 c 128
 210 530 255 540 295 540 c 0
 325 540 350 530 380 520 c 128
 410 510 440 495 460 470 c 128
 480 445 500 415 510 380 c 128
 520 345 525 305 525 260 c 0
 525 200 515 155 495 115 c 128
 475 75 445 40 410 20 c 128
 375 0 335 -15 295 -15 c 256
295 20 m 256
 330 20 365 30 395 50 c 128
 425 70 450 100 465 135 c 128
 480 170 490 210 490 260 c 0
 490 310 480 355 465 390 c 128
 450 425 425 455 395 475 c 128
 365 495 330 505 295 505 c 256
 260 505 220 495 190 475 c 128
 160 455 135 425 120 390 c 128
 105 355 95 310 95 260 c 0
 95 210 105 170 120 135 c 128
 135 100 160 70 190 50 c 128
 220 30 260 20 295 20 c 256
EndSplineSet
Validated: 1
EndChar

StartChar: p
Encoding: 112 112 79
Width: 594
Flags: HW
LayerCount: 2
Fore
SplineSet
105 -245 m 1
 105 525 l 1
 135 525 l 1
 140 460 l 1
 145 460 l 1
 170 480 200 500 230 515 c 128
 260 530 290 540 325 540 c 0
 375 540 415 525 445 505 c 128
 475 485 500 455 515 415 c 128
 530 375 535 325 535 270 c 0
 535 210 525 165 505 120 c 128
 485 75 455 40 420 20 c 128
 385 0 340 -15 300 -15 c 0
 275 -15 250 -5 225 5 c 128
 200 15 170 35 140 55 c 1
 140 -45 l 1
 140 -245 l 1
 105 -245 l 1
305 20 m 0
 340 20 375 30 405 50 c 128
 435 70 460 100 475 140 c 128
 490 180 500 220 500 270 c 0
 500 315 490 355 480 390 c 128
 470 425 450 455 425 475 c 128
 400 495 365 505 320 505 c 0
 295 505 265 500 235 485 c 128
 205 470 175 445 140 415 c 1
 140 90 l 1
 170 65 200 45 230 35 c 128
 260 25 285 20 305 20 c 0
EndSplineSet
Validated: 1
EndChar

StartChar: q
Encoding: 113 113 80
Width: 594
Flags: HW
LayerCount: 2
Fore
SplineSet
455 -245 m 1
 455 -35 l 1
 455 75 l 1
 430 50 405 25 375 10 c 128
 345 -5 310 -15 275 -15 c 0
 230 -15 195 0 160 20 c 128
 125 40 105 70 85 110 c 128
 65 150 60 200 60 260 c 0
 60 315 70 370 90 410 c 128
 110 450 145 480 180 505 c 128
 215 530 250 540 295 540 c 0
 325 540 355 535 380 525 c 128
 405 515 430 500 455 480 c 1
 455 480 l 1
 460 525 l 1
 490 525 l 1
 490 -245 l 1
 455 -245 l 1
280 20 m 0
 310 20 340 30 370 45 c 128
 400 60 425 80 455 110 c 1
 455 435 l 1
 425 460 395 480 370 490 c 128
 345 500 320 505 295 505 c 0
 260 505 225 495 195 475 c 128
 165 455 140 420 125 385 c 128
 110 350 95 305 95 260 c 0
 95 210 105 170 120 135 c 128
 135 100 155 70 180 50 c 128
 205 30 240 20 280 20 c 0
EndSplineSet
Validated: 5
EndChar

StartChar: r
Encoding: 114 114 81
Width: 334
Flags: HW
LayerCount: 2
Fore
SplineSet
105 0 m 1
 105 525 l 1
 135 525 l 1
 140 430 l 1
 145 430 l 1
 160 460 180 490 205 510 c 128
 230 530 260 540 290 540 c 0
 300 540 310 540 320 540 c 128
 330 540 335 535 345 530 c 1
 335 495 l 1
 325 500 315 505 310 505 c 128
 305 505 295 505 285 505 c 0
 260 505 235 495 210 475 c 128
 185 455 160 415 140 365 c 1
 140 0 l 1
 105 0 l 1
EndSplineSet
Validated: 1
EndChar

StartChar: s
Encoding: 115 115 82
Width: 439
Flags: HW
LayerCount: 2
Fore
SplineSet
230 -15 m 0
 190 -15 155 -5 120 10 c 128
 85 25 60 40 35 60 c 1
 60 90 l 1
 80 70 110 55 135 40 c 128
 160 25 190 20 230 20 c 0
 275 20 310 35 330 55 c 128
 350 75 365 100 365 130 c 0
 365 155 360 175 345 190 c 128
 330 205 315 215 295 225 c 128
 275 235 250 250 230 255 c 0
 205 265 180 275 155 285 c 128
 130 295 105 310 90 330 c 128
 75 350 65 375 65 405 c 0
 65 430 70 450 85 470 c 128
 100 490 115 505 140 520 c 128
 165 535 195 540 230 540 c 0
 255 540 285 535 310 525 c 128
 335 515 360 500 380 485 c 1
 355 460 l 1
 340 475 320 485 300 495 c 128
 280 505 255 505 230 505 c 0
 185 505 155 495 135 475 c 128
 115 455 105 430 105 405 c 0
 105 385 110 370 120 355 c 128
 130 340 145 330 165 320 c 128
 185 310 205 305 225 295 c 0
 245 285 270 280 290 270 c 128
 310 260 330 250 345 240 c 128
 360 230 375 215 385 200 c 128
 395 185 400 160 400 135 c 256
 400 110 395 80 380 60 c 128
 365 40 350 20 325 5 c 128
 300 -10 265 -15 230 -15 c 0
EndSplineSet
Validated: 1
EndChar

StartChar: t
Encoding: 116 116 83
Width: 329
Flags: HW
LayerCount: 2
Fore
SplineSet
240 -15 m 0
 205 -15 185 -10 165 5 c 128
 145 20 135 35 130 60 c 128
 125 85 115 110 115 140 c 2
 115 495 l 1
 35 495 l 1
 35 520 l 1
 115 525 l 1
 120 680 l 1
 150 680 l 1
 150 525 l 1
 310 525 l 1
 310 495 l 1
 150 495 l 1
 150 135 l 2
 150 100 160 70 170 50 c 128
 180 30 205 20 245 20 c 0
 255 20 265 20 280 25 c 128
 295 30 300 30 310 35 c 1
 325 5 l 1
 310 0 295 0 280 -5 c 128
 265 -10 250 -15 240 -15 c 0
EndSplineSet
Validated: 1
EndChar

StartChar: u
Encoding: 117 117 84
Width: 574
Flags: HW
LayerCount: 2
Fore
SplineSet
255 -15 m 0
 200 -15 160 0 135 35 c 128
 110 70 95 120 95 190 c 2
 95 525 l 1
 130 525 l 1
 130 190 l 2
 130 130 140 90 160 60 c 128
 180 30 215 20 260 20 c 0
 295 20 325 30 350 50 c 128
 375 70 400 95 435 135 c 1
 435 525 l 1
 475 525 l 1
 475 0 l 1
 440 0 l 1
 440 90 l 1
 435 90 l 1
 410 60 385 35 355 15 c 128
 325 -5 290 -15 255 -15 c 0
EndSplineSet
Validated: 1
EndChar

StartChar: v
Encoding: 118 118 85
Width: 464
Flags: HW
LayerCount: 2
Fore
SplineSet
215 0 m 1
 15 525 l 1
 55 525 l 1
 175 185 l 2
 185 160 195 135 205 110 c 128
 215 85 220 60 230 35 c 1
 235 35 l 1
 245 60 255 85 265 110 c 128
 275 135 280 160 290 185 c 2
 415 525 l 1
 455 525 l 1
 255 0 l 1
 215 0 l 1
EndSplineSet
Validated: 1
EndChar

StartChar: w
Encoding: 119 119 86
Width: 739
Flags: HW
LayerCount: 2
Fore
SplineSet
185 0 m 1
 25 525 l 1
 65 525 l 1
 165 175 l 2
 170 150 180 125 185 105 c 128
 190 85 200 60 205 35 c 1
 210 35 l 1
 215 60 225 85 230 105 c 128
 235 125 240 150 245 175 c 2
 350 525 l 1
 395 525 l 1
 495 175 l 2
 500 150 510 125 515 105 c 128
 520 85 530 60 535 35 c 1
 540 35 l 1
 545 60 555 85 560 105 c 128
 565 125 575 150 580 175 c 2
 680 525 l 1
 715 525 l 1
 560 0 l 1
 515 0 l 1
 415 340 l 2
 405 365 400 390 395 415 c 128
 390 440 380 465 375 490 c 1
 370 490 l 1
 360 450 360 455 350 415 c 128
 345 390 335 365 325 340 c 2
 230 0 l 1
 185 0 l 1
EndSplineSet
Validated: 1
EndChar

StartChar: x
Encoding: 120 120 87
Width: 429
Flags: HW
LayerCount: 2
Fore
SplineSet
15 0 m 1
 195 275 l 1
 30 525 l 1
 70 525 l 1
 160 385 l 2
 170 370 180 360 190 345 c 128
 200 330 210 315 220 300 c 1
 220 300 l 1
 230 315 240 330 250 345 c 128
 260 360 270 370 280 385 c 2
 365 525 l 1
 405 525 l 1
 240 275 l 1
 420 0 l 1
 380 0 l 1
 280 150 l 2
 270 165 260 185 250 200 c 128
 240 215 225 235 215 250 c 1
 210 250 l 1
 200 235 190 215 180 200 c 128
 170 185 160 165 150 150 c 2
 55 0 l 1
 15 0 l 1
EndSplineSet
Validated: 5
EndChar

StartChar: y
Encoding: 121 121 88
Width: 464
Flags: HW
LayerCount: 2
Fore
SplineSet
75 -245 m 0
 65 -245 55 -240 45 -240 c 128
 35 -240 30 -240 25 -235 c 1
 30 -200 l 1
 35 -205 40 -205 50 -205 c 128
 60 -205 65 -210 75 -210 c 0
 110 -210 135 -195 160 -165 c 128
 185 -135 200 -100 215 -60 c 2
 230 -10 l 1
 15 525 l 1
 55 525 l 1
 185 185 l 2
 195 160 205 135 215 110 c 128
 225 85 235 60 245 35 c 1
 250 35 l 1
 260 60 265 85 275 110 c 128
 285 135 295 160 300 185 c 2
 420 525 l 1
 455 525 l 1
 245 -75 l 2
 235 -100 225 -130 210 -155 c 128
 195 -180 175 -205 155 -220 c 128
 135 -235 105 -245 75 -245 c 0
EndSplineSet
Validated: 1
EndChar

StartChar: z
Encoding: 122 122 89
Width: 434
Flags: HW
LayerCount: 2
Fore
SplineSet
30 0 m 1
 30 20 l 1
 350 495 l 1
 65 495 l 1
 65 525 l 1
 400 525 l 1
 400 505 l 1
 75 35 l 1
 410 35 l 1
 410 0 l 1
 30 0 l 1
EndSplineSet
Validated: 1
EndChar

StartChar: braceleft
Encoding: 123 123 90
Width: 294
Flags: HW
LayerCount: 2
Fore
SplineSet
245 -165 m 2
 220 -165 200 -165 180 -155 c 128
 160 -145 150 -135 140 -115 c 128
 130 -95 125 -65 125 -30 c 0
 125 -5 125 25 125 50 c 128
 125 75 130 100 130 125 c 128
 130 150 135 175 135 200 c 0
 135 215 130 230 125 245 c 128
 120 260 115 270 100 280 c 128
 85 290 65 295 40 295 c 1
 40 320 l 1
 65 320 85 325 100 335 c 128
 115 345 120 350 125 365 c 128
 130 380 135 395 135 410 c 0
 135 435 130 460 130 485 c 128
 130 510 125 535 125 560 c 128
 125 585 125 615 125 640 c 0
 125 695 135 730 155 750 c 128
 175 770 205 780 245 780 c 2
 280 780 l 1
 280 755 l 1
 245 755 l 2
 210 755 185 745 175 725 c 128
 165 705 155 675 155 635 c 0
 155 600 160 565 160 530 c 128
 160 495 165 460 165 420 c 0
 165 390 155 365 150 345 c 128
 145 325 130 315 110 310 c 1
 110 305 l 1
 130 300 145 285 150 265 c 128
 155 245 165 220 165 190 c 0
 165 150 160 115 160 80 c 128
 160 45 155 10 155 -25 c 0
 155 -65 165 -90 175 -110 c 128
 185 -130 210 -140 245 -140 c 2
 280 -140 l 1
 280 -165 l 1
 245 -165 l 2
EndSplineSet
Validated: 1
EndChar

StartChar: bar
Encoding: 124 124 91
Width: 239
Flags: HW
LayerCount: 2
Fore
SplineSet
105 -275 m 1
 105 825 l 1
 135 825 l 1
 135 -275 l 1
 105 -275 l 1
EndSplineSet
Validated: 1
EndChar

StartChar: braceright
Encoding: 125 125 92
Width: 294
Flags: HW
LayerCount: 2
Fore
SplineSet
20 -165 m 1
 20 -140 l 1
 55 -140 l 2
 90 -140 115 -130 125 -110 c 128
 135 -90 145 -65 145 -25 c 0
 145 10 140 45 140 80 c 128
 140 115 135 150 135 190 c 0
 135 220 140 245 145 265 c 128
 150 285 170 300 190 305 c 1
 190 310 l 1
 170 315 150 325 145 345 c 128
 140 365 135 390 135 420 c 0
 135 460 140 495 140 530 c 128
 140 565 145 600 145 635 c 0
 145 675 135 705 125 725 c 128
 115 745 90 755 55 755 c 2
 20 755 l 1
 20 780 l 1
 55 780 l 2
 95 780 125 770 145 750 c 128
 165 730 175 695 175 640 c 0
 175 615 170 585 170 560 c 128
 170 535 165 510 165 485 c 128
 165 460 165 435 165 410 c 0
 165 395 165 380 170 365 c 128
 175 350 185 345 200 335 c 128
 215 325 235 320 260 320 c 1
 260 295 l 1
 235 295 215 290 200 280 c 128
 185 270 175 260 170 245 c 128
 165 230 165 215 165 200 c 0
 165 175 165 150 165 125 c 128
 165 100 170 75 170 50 c 128
 170 25 175 -5 175 -30 c 0
 175 -85 165 -120 145 -140 c 128
 125 -160 95 -165 55 -165 c 2
 20 -165 l 1
EndSplineSet
Validated: 1
EndChar

StartChar: asciitilde
Encoding: 126 126 93
Width: 519
Flags: HW
LayerCount: 2
Fore
SplineSet
360 295 m 256
 340 295 320 300 300 310 c 128
 280 320 265 330 250 345 c 128
 235 360 220 370 205 380 c 128
 190 390 175 395 160 395 c 0
 145 395 125 390 110 380 c 128
 95 370 85 350 70 325 c 1
 45 340 l 1
 60 370 80 395 100 410 c 128
 120 425 140 430 160 430 c 256
 180 430 200 425 220 415 c 128
 240 405 255 395 270 380 c 128
 285 365 300 355 315 345 c 128
 330 335 345 330 360 330 c 0
 375 330 395 335 410 345 c 128
 425 355 435 375 450 400 c 1
 475 385 l 1
 460 355 440 335 420 320 c 128
 400 305 380 295 360 295 c 256
EndSplineSet
Validated: 1
EndChar

StartChar: sterling
Encoding: 163 163 94
Width: 1000
Flags: HW
LayerCount: 2
Fore
SplineSet
200 551 m 1
 928 551 l 1
 928 522 l 1
 200 522 l 1
 200 551 l 1
220 259 m 1
 816 259 l 1
 816 229 l 1
 220 229 l 1
 220 259 l 1
386 659 m 1
 416 659 l 1
 416 376 l 1
 720 376 l 1
 720 659 l 1
 749 659 l 1
 749 347 l 1
 386 347 l 1
 386 659 l 1
807 259 m 1
 814 259 l 1
 820 261 l 1
 839 248 l 1
 811 198 773.666666667 155 727 119 c 128
 680.333333333 83 627.666666667 52.8333333333 569 28.5 c 128
 510.333333333 4.16666666667 448.5 -15.5 383.5 -30.5 c 128
 318.5 -45.5 253 -57 187 -65 c 1
 186.333333333 -61.6666666667 184.666666667 -57.3333333333 182 -52 c 128
 179.333333333 -46.6666666667 176.666666667 -42 174 -38 c 1
 237.333333333 -31.3333333333 301 -21 365 -7 c 128
 429 7 489.666666667 25.5 547 48.5 c 128
 604.333333333 71.5 655.5 99.8333333333 700.5 133.5 c 128
 745.5 167.166666667 781 206.666666667 807 252 c 1
 807 259 l 1
371 228 m 1
 405 176.666666667 451.333333333 132.333333333 510 95 c 128
 568.666666667 57.6666666667 635.833333333 27.3333333333 711.5 4 c 128
 787.166666667 -19.3333333333 867.333333333 -35.6666666667 952 -45 c 1
 950 -47 947.833333333 -49.6666666667 945.5 -53 c 128
 943.166666667 -56.3333333333 941 -59.5 939 -62.5 c 128
 937 -65.5 935.333333333 -68.3333333333 934 -71 c 1
 850 -59.6666666667 769.833333333 -41.8333333333 693.5 -17.5 c 128
 617.166666667 6.83333333333 548.833333333 38.3333333333 488.5 77 c 128
 428.166666667 115.666666667 380.333333333 162 345 216 c 1
 371 228 l 1
155 718 m 1
 941 718 l 1
 941 688 l 1
 155 688 l 1
 155 718 l 1
141 718 m 1
 171 718 l 1
 171 441 l 2
 171 403.666666667 169.833333333 363.166666667 167.5 319.5 c 128
 165.166666667 275.833333333 160.666666667 231.166666667 154 185.5 c 128
 147.333333333 139.833333333 137.666666667 95 125 51 c 128
 112.333333333 7 95.3333333333 -34 74 -72 c 1
 72.6666666667 -70 70.3333333333 -68 67 -66 c 128
 63.6666666667 -64 60.5 -62 57.5 -60 c 128
 54.5 -58 51.6666666667 -56.6666666667 49 -56 c 1
 70.3333333333 -18.6666666667 87 21.3333333333 99 64 c 128
 111 106.666666667 120.166666667 150 126.5 194 c 128
 132.833333333 238 136.833333333 281 138.5 323 c 128
 140.166666667 365 141 404.333333333 141 441 c 2
 141 718 l 1
484 824 m 1
 512 833 l 1
 524.666666667 814.333333333 537.5 793.666666667 550.5 771 c 128
 563.5 748.333333333 573 729.333333333 579 714 c 1
 551 702 l 1
 544.333333333 718 534.833333333 737.666666667 522.5 761 c 128
 510.166666667 784.333333333 497.333333333 805.333333333 484 824 c 1
EndSplineSet
Validated: 524293
EndChar

StartChar: degree
Encoding: 176 176 95
Width: 336
Flags: HW
LayerCount: 2
Fore
SplineSet
168 498 m 256
 147.333333333 498 127.666666667 503.166666667 109 513.5 c 128
 90.3333333333 523.833333333 75.1666666667 538.5 63.5 557.5 c 128
 51.8333333333 576.5 46 599 46 625 c 0
 46 652.333333333 51.8333333333 675.5 63.5 694.5 c 128
 75.1666666667 713.5 90.3333333333 728 109 738 c 128
 127.666666667 748 147.333333333 753 168 753 c 256
 188.666666667 753 208.333333333 748 227 738 c 128
 245.666666667 728 260.833333333 713.5 272.5 694.5 c 128
 284.166666667 675.5 290 652.333333333 290 625 c 0
 290 599 284.166666667 576.5 272.5 557.5 c 128
 260.833333333 538.5 245.666666667 523.833333333 227 513.5 c 128
 208.333333333 503.166666667 188.666666667 498 168 498 c 256
168 528 m 256
 194.666666667 528 216.333333333 537.333333333 233 556 c 128
 249.666666667 574.666666667 258 597.666666667 258 625 c 0
 258 653.666666667 249.666666667 677.333333333 233 696 c 128
 216.333333333 714.666666667 194.666666667 724 168 724 c 256
 141.333333333 724 119.666666667 714.666666667 103 696 c 128
 86.3333333333 677.333333333 78 653.666666667 78 625 c 0
 78 597.666666667 86.3333333333 574.666666667 103 556 c 128
 119.666666667 537.333333333 141.333333333 528 168 528 c 256
EndSplineSet
EndChar

StartChar: questiondown
Encoding: 191 191 96
Width: 1000
Flags: H
LayerCount: 2
Fore
SplineSet
399 587 m 1
 399 449 l 1
 812 449 l 1
 812 587 l 1
 399 587 l 1
399 753 m 1
 399 617 l 1
 812 617 l 1
 812 753 l 1
 399 753 l 1
370 782 m 1
 841 782 l 1
 841 420 l 1
 370 420 l 1
 370 782 l 1
336 308 m 1
 873 308 l 1
 873 -31 l 1
 844 -31 l 1
 844 278 l 1
 703 278 l 1
 703 -31 l 1
 673 -31 l 1
 673 278 l 1
 533 278 l 1
 533 -31 l 1
 504 -31 l 1
 504 278 l 1
 366 278 l 1
 366 -31 l 1
 336 -31 l 1
 336 308 l 1
241 -12 m 1
 952 -12 l 1
 952 -41 l 1
 241 -41 l 1
 241 -12 l 1
105 797 m 1
 122 818 l 1
 143.333333333 810 165.5 800.166666667 188.5 788.5 c 128
 211.5 776.833333333 233 764.833333333 253 752.5 c 128
 273 740.166666667 289.333333333 728.333333333 302 717 c 1
 285 691 l 1
 272.333333333 702.333333333 256 714.5 236 727.5 c 128
 216 740.5 194.666666667 753 172 765 c 128
 149.333333333 777 127 787.666666667 105 797 c 1
49 524 m 1
 67 546 l 1
 89 537.333333333 111.333333333 526.833333333 134 514.5 c 128
 156.666666667 502.166666667 178.166666667 489.5 198.5 476.5 c 128
 218.833333333 463.5 235.333333333 451.333333333 248 440 c 1
 231 415 l 1
 217.666666667 426.333333333 201 438.666666667 181 452 c 128
 161 465.333333333 139.5 478.333333333 116.5 491 c 128
 93.5 503.666666667 71 514.666666667 49 524 c 1
81 -35 m 1
 99 -9 119.333333333 22.5 142 59.5 c 128
 164.666666667 96.5 187.333333333 135.5 210 176.5 c 128
 232.666666667 217.5 253.333333333 256.666666667 272 294 c 1
 293 275 l 1
 275.666666667 239.666666667 256.166666667 202 234.5 162 c 128
 212.833333333 122 190.833333333 83.1666666667 168.5 45.5 c 128
 146.166666667 7.83333333333 125.333333333 -26 106 -56 c 1
 81 -35 l 1
EndSplineSet
Validated: 524293
EndChar

StartChar: Adieresis
Encoding: 196 196 97
Width: 1000
Flags: HW
LayerCount: 2
Fore
SplineSet
101 796 m 1
 123 815 l 1
 141.666666667 804.333333333 161 792.333333333 181 779 c 128
 201 765.666666667 219.666666667 752.333333333 237 739 c 128
 254.333333333 725.666666667 268.666666667 713.666666667 280 703 c 1
 258 681 l 1
 247.333333333 692.333333333 233.166666667 704.833333333 215.5 718.5 c 128
 197.833333333 732.166666667 179 745.833333333 159 759.5 c 128
 139 773.166666667 119.666666667 785.333333333 101 796 c 1
48 524 m 1
 69 544 l 1
 87.6666666667 534.666666667 106.666666667 523.833333333 126 511.5 c 128
 145.333333333 499.166666667 163.5 486.666666667 180.5 474 c 128
 197.5 461.333333333 211.333333333 449.666666667 222 439 c 1
 201 417 l 1
 190.333333333 427.666666667 176.5 439.333333333 159.5 452 c 128
 142.5 464.666666667 124.333333333 477.333333333 105 490 c 128
 85.6666666667 502.666666667 66.6666666667 514 48 524 c 1
77 -26 m 1
 91 -2 106.666666667 27 124 61 c 128
 141.333333333 95 158.5 130.5 175.5 167.5 c 128
 192.5 204.5 208 240 222 274 c 1
 247 259 l 1
 233.666666667 226.333333333 218.833333333 191.833333333 202.5 155.5 c 128
 186.166666667 119.166666667 169.666666667 83.8333333333 153 49.5 c 128
 136.333333333 15.1666666667 120.666666667 -15.3333333333 106 -42 c 1
 77 -26 l 1
428 -57 m 1
 427.333333333 -53.6666666667 426.166666667 -50.1666666667 424.5 -46.5 c 128
 422.833333333 -42.8333333333 421 -39 419 -35 c 128
 417 -31 415 -27.6666666667 413 -25 c 1
 419.666666667 -23 427.166666667 -18.6666666667 435.5 -12 c 128
 443.833333333 -5.33333333333 448 7 448 25 c 2
 448 360 l 1
 477 360 l 1
 477 -21 l 1
 477 -21 477 -21 472 -23.5 c 128
 468.666666667 -25.1666666667 464.666666667 -27.3333333333 460 -30 c 128
 455.333333333 -32.6666666667 450.5 -35.5 445.5 -38.5 c 128
 440.5 -41.5 436.333333333 -44.6666666667 433 -48 c 128
 429.666666667 -51.3333333333 428 -54.3333333333 428 -57 c 1
627 825 m 1
 656 820 l 1
 636.666666667 721.333333333 611 633 579 555 c 128
 547 477 507 408.5 459 349.5 c 128
 411 290.5 352.666666667 239.333333333 284 196 c 0
 282.666666667 198 280.666666667 200.333333333 278 203 c 128
 275.333333333 205.666666667 272.333333333 208.333333333 269 211 c 128
 265.666666667 213.666666667 262.666666667 215.666666667 260 217 c 1
 364 277.666666667 444.5 358.5 501.5 459.5 c 128
 558.5 560.5 600.333333333 682.333333333 627 825 c 1
317 671 m 1
 918 671 l 1
 918 527 l 1
 889 527 l 1
 889 642 l 1
 346 642 l 1
 346 527 l 1
 317 527 l 1
 317 671 l 1
631 655 m 1
 645 550.333333333 665.666666667 454.166666667 693 366.5 c 128
 720.333333333 278.833333333 756.333333333 203 801 139 c 128
 845.666666667 75 901 26 967 -8 c 1
 964 -11 964 -11 960 -15 c 128
 957.333333333 -17.6666666667 954.666666667 -20.5 952 -23.5 c 128
 949.333333333 -26.5 947 -29.3333333333 945 -32 c 1
 877.666666667 6 821.333333333 57.8333333333 776 123.5 c 128
 730.666666667 189.166666667 694.333333333 266.333333333 667 355 c 128
 639.666666667 443.666666667 618.666666667 542.333333333 604 651 c 1
 631 655 l 1
889 424 m 1
 912 405 l 1
 894 387 873.833333333 368.666666667 851.5 350 c 128
 829.166666667 331.333333333 806.5 313.333333333 783.5 296 c 128
 760.5 278.666666667 739 263.333333333 719 250 c 1
 699 268 l 1
 719 281.333333333 740.666666667 297.166666667 764 315.5 c 128
 787.333333333 333.833333333 810.166666667 352.5 832.5 371.5 c 128
 854.833333333 390.5 873.666666667 408 889 424 c 1
428 -57 m 1
 427 -27 l 1
 449 -8 l 1
 672 70 l 1
 672 65.3333333333 672.5 60.1666666667 673.5 54.5 c 128
 674.5 48.8333333333 675.333333333 44.3333333333 676 41 c 1
 624 22.3333333333 582.333333333 7.33333333333 551 -4 c 128
 519.666666667 -15.3333333333 495.833333333 -24.3333333333 479.5 -31 c 128
 463.166666667 -37.6666666667 451.5 -42.8333333333 444.5 -46.5 c 128
 437.5 -50.1666666667 432 -53.6666666667 428 -57 c 1
EndSplineSet
Validated: 524293
EndChar

StartChar: Odieresis
Encoding: 214 214 98
Width: 1000
Flags: HW
LayerCount: 2
Fore
SplineSet
200 551 m 1
 928 551 l 1
 928 522 l 1
 200 522 l 1
 200 551 l 1
220 259 m 1
 816 259 l 1
 816 229 l 1
 220 229 l 1
 220 259 l 1
386 659 m 1
 416 659 l 1
 416 376 l 1
 720 376 l 1
 720 659 l 1
 749 659 l 1
 749 347 l 1
 386 347 l 1
 386 659 l 1
807 259 m 1
 814 259 l 1
 820 261 l 1
 839 248 l 1
 811 198 773.666666667 155 727 119 c 128
 680.333333333 83 627.666666667 52.8333333333 569 28.5 c 128
 510.333333333 4.16666666667 448.5 -15.5 383.5 -30.5 c 128
 318.5 -45.5 253 -57 187 -65 c 1
 186.333333333 -61.6666666667 184.666666667 -57.3333333333 182 -52 c 128
 179.333333333 -46.6666666667 176.666666667 -42 174 -38 c 1
 237.333333333 -31.3333333333 301 -21 365 -7 c 128
 429 7 489.666666667 25.5 547 48.5 c 128
 604.333333333 71.5 655.5 99.8333333333 700.5 133.5 c 128
 745.5 167.166666667 781 206.666666667 807 252 c 1
 807 259 l 1
371 228 m 1
 405 176.666666667 451.333333333 132.333333333 510 95 c 128
 568.666666667 57.6666666667 635.833333333 27.3333333333 711.5 4 c 128
 787.166666667 -19.3333333333 867.333333333 -35.6666666667 952 -45 c 1
 950 -47 947.833333333 -49.6666666667 945.5 -53 c 128
 943.166666667 -56.3333333333 941 -59.5 939 -62.5 c 128
 937 -65.5 935.333333333 -68.3333333333 934 -71 c 1
 850 -59.6666666667 769.833333333 -41.8333333333 693.5 -17.5 c 128
 617.166666667 6.83333333333 548.833333333 38.3333333333 488.5 77 c 128
 428.166666667 115.666666667 380.333333333 162 345 216 c 1
 371 228 l 1
155 718 m 1
 941 718 l 1
 941 688 l 1
 155 688 l 1
 155 718 l 1
141 718 m 1
 171 718 l 1
 171 441 l 2
 171 403.666666667 169.833333333 363.166666667 167.5 319.5 c 128
 165.166666667 275.833333333 160.666666667 231.166666667 154 185.5 c 128
 147.333333333 139.833333333 137.666666667 95 125 51 c 128
 112.333333333 7 95.3333333333 -34 74 -72 c 1
 72.6666666667 -70 70.3333333333 -68 67 -66 c 128
 63.6666666667 -64 60.5 -62 57.5 -60 c 128
 54.5 -58 51.6666666667 -56.6666666667 49 -56 c 1
 70.3333333333 -18.6666666667 87 21.3333333333 99 64 c 128
 111 106.666666667 120.166666667 150 126.5 194 c 128
 132.833333333 238 136.833333333 281 138.5 323 c 128
 140.166666667 365 141 404.333333333 141 441 c 2
 141 718 l 1
484 824 m 1
 512 833 l 1
 524.666666667 814.333333333 537.5 793.666666667 550.5 771 c 128
 563.5 748.333333333 573 729.333333333 579 714 c 1
 551 702 l 1
 544.333333333 718 534.833333333 737.666666667 522.5 761 c 128
 510.166666667 784.333333333 497.333333333 805.333333333 484 824 c 1
EndSplineSet
Validated: 524293
EndChar

StartChar: Udieresis
Encoding: 220 220 99
Width: 1000
Flags: HW
LayerCount: 2
Fore
SplineSet
390 586 m 1
 390 445 l 1
 848 445 l 1
 848 586 l 1
 390 586 l 1
390 755 m 1
 390 616 l 1
 848 616 l 1
 848 755 l 1
 390 755 l 1
361 784 m 1
 877 784 l 1
 877 416 l 1
 361 416 l 1
 361 784 l 1
250 -12 m 1
 952 -12 l 1
 952 -41 l 1
 250 -41 l 1
 250 -12 l 1
328 293 m 1
 354 303 l 1
 370 279 384.833333333 253.166666667 398.5 225.5 c 128
 412.166666667 197.833333333 424 170.666666667 434 144 c 128
 444 117.333333333 451.333333333 93.6666666667 456 73 c 1
 427 62 l 1
 422.333333333 83.3333333333 415 107.5 405 134.5 c 128
 395 161.5 383.5 188.833333333 370.5 216.5 c 128
 357.5 244.166666667 343.333333333 269.666666667 328 293 c 1
885 310 m 1
 914 296 l 1
 902.666666667 270.666666667 889.833333333 243.5 875.5 214.5 c 128
 861.166666667 185.5 846.833333333 157.333333333 832.5 130 c 128
 818.166666667 102.666666667 804.333333333 78.6666666667 791 58 c 1
 769 71 l 1
 781.666666667 91.6666666667 795.333333333 116 810 144 c 128
 824.666666667 172 838.666666667 200.666666667 852 230 c 128
 865.333333333 259.333333333 876.333333333 286 885 310 c 1
516 374 m 1
 545 374 l 1
 545 -32 l 1
 516 -32 l 1
 516 374 l 1
688 374 m 1
 718 374 l 1
 718 -32 l 1
 688 -32 l 1
 688 374 l 1
98 798 m 1
 116 818 l 1
 136.666666667 809.333333333 157.666666667 798.833333333 179 786.5 c 128
 200.333333333 774.166666667 220.333333333 761.5 239 748.5 c 128
 257.666666667 735.5 272.666666667 723.333333333 284 712 c 1
 267 687 l 1
 255 699 239.666666667 711.666666667 221 725 c 128
 202.333333333 738.333333333 182.333333333 751.333333333 161 764 c 128
 139.666666667 776.666666667 118.666666667 788 98 798 c 1
49 524 m 1
 67 546 l 1
 87.6666666667 538 108.666666667 528.166666667 130 516.5 c 128
 151.333333333 504.833333333 171.5 493 190.5 481 c 128
 209.5 469 225 457.666666667 237 447 c 1
 220 422 l 1
 208 432.666666667 192.5 444.166666667 173.5 456.5 c 128
 154.5 468.833333333 134.166666667 481 112.5 493 c 128
 90.8333333333 505 69.6666666667 515.333333333 49 524 c 1
81 -35 m 1
 95.6666666667 -8.33333333333 112 23.5 130 60.5 c 128
 148 97.5 166 136.333333333 184 177 c 128
 202 217.666666667 218.333333333 256.666666667 233 294 c 1
 256 277 l 1
 242.666666667 241.666666667 227.333333333 204 210 164 c 128
 192.666666667 124 175.166666667 85.1666666667 157.5 47.5 c 128
 139.833333333 9.83333333333 123 -24 107 -54 c 1
 81 -35 l 1
EndSplineSet
Validated: 524293
EndChar

